<svg xmlns="http://www.w3.org/2000/svg" xmlns:xlink="http://www.w3.org/1999/xlink" version="1.1" x="0px" y="0px" viewBox="0 15 100 75" enable-background="new 0 0 100 100" xml:space="preserve">
  <g>
    <g>
      <path d="M93.841,22.056L7.029,21.701c-1.752-0.007-3.178,1.423-3.185,3.196L3.63,77.424c-0.008,1.772,1.406,3.214,3.157,3.222    l17.036,0.07l0.437-0.992h51.877l0.532,1.207L93.601,81c1.751,0.008,3.178-1.424,3.185-3.195L97,25.277    C97.008,23.505,95.594,22.063,93.841,22.056z M8.037,78.41c-0.972,0-1.759-0.788-1.759-1.759c0-0.972,0.787-1.759,1.759-1.759    c0.971,0,1.759,0.787,1.759,1.759C9.796,77.622,9.008,78.41,8.037,78.41z M24.491,79.198l0.563-1.273h50.288l0.562,1.273H24.491z     M72.167,70.731l0.562,1.273H27.667l0.562-1.273H72.167z M28.461,70.207l0.503-1.138h21.233h21.235l0.502,1.138H28.461z     M72.961,72.53l0.563,1.273h-46.65l0.563-1.273H72.961z M73.755,74.328l0.562,1.273H26.079l0.563-1.273H73.755z M74.548,76.127    L75.11,77.4H25.286l0.562-1.273H74.548z M9.476,65.111c-0.628,0-1.138-0.376-1.138-0.84V27.385c0-0.464,0.51-0.84,1.138-0.84    h80.968c0.629,0,1.138,0.376,1.138,0.84v36.887c0,0.464-0.509,0.84-1.138,0.84H9.476z M92.529,78.41    c-0.972,0-1.76-0.788-1.76-1.759c0-0.972,0.788-1.759,1.76-1.759c0.971,0,1.758,0.787,1.758,1.759    C94.287,77.622,93.5,78.41,92.529,78.41z"/>
      <path d="M87.165,29.1H12.634c-0.695,0-1.261,0.564-1.261,1.261v4.457c0,0.696,0.565,1.261,1.261,1.261h74.531    c0.695,0,1.26-0.564,1.26-1.261v-4.457C88.425,29.664,87.86,29.1,87.165,29.1z"/>
      <path d="M87.165,38.673H12.634c-0.695,0-1.261,0.401-1.261,0.894v21.91c0,0.494,0.565,0.896,1.261,0.896h74.531    c0.695,0,1.26-0.401,1.26-0.896v-21.91C88.425,39.074,87.86,38.673,87.165,38.673z M12.923,42.354h10.555    c-0.291,0.218-0.569,0.453-0.836,0.701H12.623L12.923,42.354z M25.54,46.379c0.535-0.523,1.171-0.945,1.876-1.232l0.315,0.77    c0.599-0.245,1.234-0.369,1.89-0.369c0.148,0,0.299,0.006,0.445,0.02l0.073-0.829c0.772,0.068,1.501,0.287,2.156,0.625    l-0.382,0.738c0.577,0.299,1.085,0.702,1.51,1.198l0.632-0.541c0.485,0.567,0.865,1.229,1.104,1.954l-0.788,0.262    c0.167,0.507,0.253,1.037,0.253,1.576c0,0.113-0.005,0.225-0.013,0.336l0.83,0.054c-0.051,0.775-0.252,1.507-0.576,2.169    l-0.747-0.365c-0.285,0.585-0.678,1.102-1.163,1.536l0.555,0.62c-0.558,0.499-1.211,0.892-1.93,1.147l-0.279-0.783    c-0.539,0.192-1.104,0.29-1.681,0.29c-0.076,0-0.15-0.002-0.225-0.006l-0.036,0.832c-0.777-0.035-1.515-0.221-2.183-0.529    l0.349-0.755c-0.59-0.272-1.115-0.651-1.561-1.128l-0.607,0.567c-0.513-0.547-0.919-1.191-1.191-1.903l0.776-0.297    c-0.218-0.568-0.328-1.17-0.328-1.787c0-0.036,0.001-0.074,0.002-0.112l-0.83-0.018c0.016-0.778,0.185-1.518,0.479-2.193    l0.763,0.332c0.258-0.596,0.627-1.129,1.093-1.586L25.54,46.379z M26.847,41.859c0.895-0.286,1.828-0.43,2.774-0.43    c0.323,0,0.652,0.018,0.974,0.052l-0.187,1.741l0,0l0,0c-0.001,0-0.002,0-0.003,0l0,0c-0.001,0-0.002,0-0.002,0    c-0.003,0-0.005,0-0.006-0.001h-0.001c-0.001,0-0.001,0-0.003,0c-0.001,0-0.002,0-0.003,0l0,0c-0.001,0-0.001,0-0.002,0    c0,0,0,0-0.002,0c0-0.001-0.001-0.001-0.002-0.001l0,0c-0.001,0-0.002,0-0.002,0c-0.001,0-0.001,0-0.001,0    c-0.001,0-0.001,0-0.003,0l0,0c-0.001,0-0.002,0-0.003,0c-0.001-0.001-0.002-0.001-0.004-0.001    c-0.189-0.019-0.382-0.032-0.577-0.036c-0.003,0-0.005,0-0.006,0s-0.003,0-0.004,0s-0.002,0-0.003,0s-0.002,0-0.004,0    c-0.001,0-0.001,0-0.002,0h-0.001c-0.001,0-0.002,0-0.002,0h-0.002c0,0-0.001,0-0.002,0l0,0c-0.001,0-0.002,0-0.002,0h-0.001    c-0.008,0-0.016,0-0.025,0c0,0-0.001,0-0.002-0.001c-0.001,0-0.001,0-0.001,0c-0.001,0-0.003,0-0.003,0c-0.001,0-0.001,0-0.001,0    c-0.001,0-0.001,0-0.002,0h-0.001H29.73c-0.001,0-0.001,0-0.001,0c-0.002,0-0.002,0-0.003,0h-0.001c-0.001,0-0.001,0-0.002,0l0,0    c-0.001,0-0.003,0-0.004,0c0,0,0,0-0.001,0c0,0-0.001,0-0.002,0c0,0,0,0-0.001,0h-0.001c-0.002,0-0.002,0-0.002,0    c-0.001,0-0.001,0-0.001,0c-0.001,0-0.001,0-0.002,0c0,0,0,0-0.001,0s-0.001,0-0.001,0c-0.002,0-0.002,0-0.003,0h-0.001    c-0.001,0-0.001,0-0.002,0h-0.001c-0.002,0-0.002,0-0.003,0h-0.001h-0.001c-0.001,0-0.001,0-0.001,0c-0.001,0-0.002,0-0.002,0    h-0.002c-0.001,0-0.001,0-0.002,0l0,0c-0.003,0-0.006,0-0.007,0h-0.001c0,0-0.001,0-0.002,0h-0.001c0,0-0.002,0-0.003,0    c0,0,0,0-0.001,0h-0.001h-0.001c-0.001,0-0.001,0-0.003,0c0,0,0,0-0.001,0s-0.001,0-0.002,0h-0.001c-0.001,0-0.001,0-0.001,0    c-0.002,0-0.002,0-0.003,0c0,0,0,0-0.001,0s-0.001,0-0.002,0c0,0,0,0-0.001,0c0,0-0.001,0-0.001-0.001c0,0-0.002,0-0.003,0    c0,0,0,0-0.001,0c0,0,0,0-0.001,0c0,0-0.001,0-0.002,0h-0.002c-0.001,0-0.001,0-0.001,0c-0.001,0-0.001,0-0.002,0c0,0,0,0-0.001,0    s-0.001,0-0.001,0c-0.001,0-0.001,0-0.003,0c0,0,0,0-0.001,0s-0.001,0-0.001,0c-0.001,0-0.001,0-0.002,0c0,0,0,0-0.001,0    c0,0,0,0-0.002,0c-0.001,0-0.002,0-0.002,0c-0.001,0-0.001,0-0.001,0c-0.001,0-0.001,0-0.002,0h-0.001h-0.002c0,0-0.001,0-0.002,0    c0,0,0,0-0.001,0s-0.002,0-0.002,0c-0.003,0-0.004,0-0.005,0c0,0,0,0-0.001,0s-0.004,0-0.005,0l0,0c-0.001,0-0.002,0-0.003,0    h-0.001c-0.002,0-0.003,0-0.005,0l0,0c-0.001,0-0.002,0-0.004,0c-0.001,0-0.001,0-0.001,0c-0.002,0-0.002,0-0.004,0l0,0    c-0.001,0-0.003,0-0.004,0s-0.001,0-0.001,0c-0.001,0-0.002,0-0.005,0c0,0,0,0.001-0.001,0.001c0,0-0.002,0-0.003,0l0,0    c-0.003,0-0.004,0-0.005,0c0,0,0,0-0.001,0s-0.002,0-0.003,0l0,0c-0.002,0-0.003,0-0.004,0s-0.001,0-0.002,0s-0.003,0-0.004,0l0,0    c-0.001,0-0.003,0-0.004,0h-0.001c-0.002,0-0.003,0-0.004,0l0,0c-0.001,0-0.003,0-0.003,0c-0.002,0-0.002,0-0.002,0    c-0.002,0-0.003,0-0.004,0h-0.001c-0.002,0-0.003,0-0.004,0h-0.001c-0.001,0-0.002,0-0.003,0h-0.002c-0.001,0-0.002,0-0.002,0    c-0.001,0-0.001,0-0.002,0s-0.003,0-0.004,0s-0.001,0-0.001,0c-0.001,0-0.002,0-0.003,0H29.52c-0.002,0-0.003,0-0.004,0h-0.001    c-0.001,0-0.002,0-0.004,0l0,0c-0.002,0-0.003,0-0.004,0s-0.001,0-0.001,0c-0.001,0-0.003,0-0.004,0c0,0,0,0-0.001,0    c-0.001,0.001-0.002,0.001-0.005,0.001l0,0c-0.001,0-0.002,0-0.004,0l0,0c-0.001,0-0.003,0-0.005,0l0,0c-0.001,0-0.003,0-0.004,0    c-0.002,0-0.004,0-0.004,0c-0.001,0-0.001,0-0.001,0c-0.001,0-0.002,0-0.005,0c-0.001,0-0.001,0-0.001,0c-0.001,0-0.002,0-0.003,0    c0,0,0,0-0.001,0c0,0-0.003,0-0.004,0c0,0,0,0-0.001,0c0,0-0.002,0-0.004,0l0,0c-0.002,0-0.003,0-0.004,0h-0.001    c-0.001,0-0.003,0-0.004,0l0,0c-0.001,0-0.003,0-0.004,0c0,0,0,0-0.002,0c-0.001,0-0.002,0-0.003,0l0,0    c-0.001,0-0.004,0.001-0.005,0.001c0,0,0,0-0.001,0s-0.002,0-0.003,0s-0.004,0-0.005,0c0,0,0,0-0.001,0c-0.002,0-0.006,0-0.008,0    h-0.001c-0.002,0-0.004,0-0.004,0c-0.001,0-0.001,0-0.001,0c-0.001,0-0.002,0-0.003,0c0,0,0,0-0.002,0c-0.001,0-0.002,0-0.003,0    c-0.002,0-0.004,0-0.005,0c0,0,0,0-0.001,0s-0.002,0-0.004,0c0,0,0,0,0,0.001c-0.002,0-0.003,0-0.004,0h-0.001    c-0.001,0-0.002,0-0.004,0h-0.001c-0.001,0-0.002,0-0.003,0s-0.001,0-0.001,0c-0.001,0-0.003,0-0.005,0l0,0    c-0.001,0-0.002,0-0.003,0h-0.002c-0.001,0-0.002,0-0.003,0c0,0-0.001,0-0.002,0c-0.002,0-0.003,0-0.004,0l0,0    c-0.001,0-0.002,0-0.003,0H29.36c-0.002,0.001-0.003,0.001-0.005,0.001l0,0c-0.001,0-0.002,0-0.004,0h-0.001    c-0.001,0-0.003,0-0.004,0l0,0c-0.001,0-0.003,0-0.004,0h-0.001c-0.001,0-0.002,0-0.005,0l0,0c-0.001,0-0.002,0-0.003,0h-0.001    c-0.002,0-0.004,0-0.005,0l0,0c-0.001,0.001-0.002,0.001-0.003,0.001h-0.001c-0.002,0-0.003,0-0.005,0l0,0    c-0.001,0-0.002,0-0.004,0c-0.001,0-0.001,0-0.001,0c-0.001,0-0.003,0-0.004,0l0,0c-0.003,0-0.003,0-0.005,0    c-0.001,0-0.002,0-0.005,0l0,0c-0.001,0-0.003,0-0.004,0.001c-0.003,0-0.004,0-0.005,0c0,0,0,0-0.001,0c-0.002,0-0.005,0-0.007,0    c-0.001,0-0.001,0-0.001,0c-0.001,0-0.004,0-0.005,0l0,0c-0.001,0-0.003,0-0.004,0l0,0c-0.003,0-0.004,0-0.005,0.001l0,0    c-0.001,0-0.002,0-0.003,0c-0.002,0-0.002,0-0.002,0c-0.001,0-0.003,0-0.004,0l0,0c-0.002,0-0.004,0-0.005,0l0,0    c-0.001,0-0.003,0-0.004,0l0,0c-0.004,0-0.006,0.001-0.01,0.001l0,0c-0.003,0-0.007,0-0.009,0l0,0    c-0.003,0-0.006,0.001-0.009,0.001l0,0c-0.001,0-0.004,0-0.005,0c-0.002,0-0.003,0-0.004,0l0,0c-0.002,0-0.004,0-0.005,0l0,0    c-0.001,0-0.003,0-0.005,0.001l0,0c-0.002,0-0.003,0-0.004,0l0,0c-0.001,0-0.004,0-0.005,0l0,0c-0.001,0-0.003,0-0.005,0h-0.001    c-0.001,0-0.002,0-0.003,0l0,0c-0.001,0-0.004,0.001-0.005,0.001l0,0c-0.002,0-0.003,0-0.004,0c-0.002,0-0.004,0-0.004,0    c-0.001,0-0.001,0-0.001,0c-0.004,0.001-0.006,0.001-0.009,0.001l0,0c-0.001,0-0.004,0-0.005,0s-0.002,0-0.005,0c0,0,0,0-0.001,0    s-0.002,0-0.003,0c-0.001,0.001-0.004,0.001-0.005,0.001l0,0c-0.001,0-0.002,0-0.004,0l0,0c-0.002,0-0.003,0-0.005,0l0,0    c-0.002,0-0.003,0-0.005,0c0,0,0,0-0.001,0c0,0.001-0.002,0.001-0.003,0.001l0,0c-0.001,0-0.003,0-0.005,0l0,0    c-0.003,0-0.006,0-0.009,0c0,0,0,0-0.001,0c-0.003,0.001-0.005,0.001-0.008,0.001l0,0c-0.004,0-0.006,0-0.01,0l0,0    c-0.003,0.001-0.005,0.001-0.009,0.001l0,0c-0.001,0-0.003,0-0.004,0.001c-0.002,0-0.004,0-0.005,0l0,0c-0.001,0-0.002,0-0.005,0    c-0.001,0-0.002,0-0.004,0s-0.004,0.001-0.005,0.001l0,0c-0.003,0-0.006,0-0.009,0l0,0c-0.003,0-0.006,0.001-0.009,0.001    c-0.004,0-0.006,0-0.009,0c0,0,0,0-0.001,0c-0.002,0.001-0.006,0.001-0.009,0.001l0,0c-0.002,0-0.006,0-0.008,0.001    c0,0,0,0-0.001,0s-0.003,0-0.004,0c-0.002,0-0.003,0-0.005,0l0,0c-0.002,0-0.003,0-0.005,0c-0.002,0.001-0.006,0.001-0.008,0.001    c-0.004,0-0.007,0.001-0.009,0.001h-0.002c-0.002,0-0.004,0-0.008,0c-0.003,0.001-0.005,0.001-0.009,0.001    c-0.003,0.001-0.006,0.001-0.009,0.001l0,0c-0.004,0-0.006,0.001-0.009,0.001l0,0c-0.002,0-0.004,0-0.005,0s-0.004,0-0.005,0    c-0.001,0.001-0.003,0.001-0.004,0.001c-0.004,0-0.007,0-0.01,0l0,0c-0.002,0.001-0.006,0.001-0.009,0.001l0,0    c-0.002,0.001-0.006,0.001-0.009,0.001l0,0c-0.002,0-0.006,0.001-0.009,0.001l0,0c-0.003,0-0.006,0-0.008,0.001    c-0.002,0-0.002,0-0.002,0c-0.034,0.003-0.07,0.007-0.105,0.012c-0.486,0.054-0.959,0.156-1.411,0.3L26.847,41.859z     M35.763,42.354H64.05c-0.289,0.217-0.563,0.454-0.83,0.701H36.599C36.332,42.806,36.054,42.571,35.763,42.354z M69.436,43.217    L69.436,43.217c-0.002,0-0.006,0.001-0.008,0.001c0,0,0,0-0.001,0c-0.002,0-0.003,0-0.005,0c-0.002,0.001-0.006,0.001-0.009,0.001    l0,0c-0.003,0-0.006,0-0.008,0.001l0,0c-0.008,0-0.015,0.001-0.022,0.002l0,0c-0.388,0.043-0.768,0.116-1.141,0.218    c-0.007,0.002-0.014,0.004-0.021,0.005l-0.001,0.001c-0.007,0.001-0.014,0.003-0.021,0.006l0,0c-0.002,0-0.006,0.001-0.008,0.002    l0,0c-0.001,0-0.003,0.001-0.005,0.001h-0.001c0,0.001-0.001,0-0.001,0.001c-0.002,0-0.002,0-0.002,0    c-0.001,0-0.003,0.001-0.004,0.001s-0.001,0-0.001,0c-0.002,0.001-0.004,0.001-0.007,0.002c-0.001,0-0.001,0-0.001,0    c-0.002,0.001-0.006,0.002-0.008,0.002c0,0,0,0-0.001,0c-0.001,0.001-0.002,0.001-0.004,0.002h-0.001c-0.001,0-0.001,0-0.002,0    c-0.001,0.001-0.004,0.001-0.005,0.001c0,0.001,0,0.001-0.001,0.001c-0.002,0-0.006,0.001-0.007,0.002c-0.001,0-0.001,0-0.001,0    c-0.001,0-0.002,0-0.005,0.001c0,0,0,0-0.001,0c0,0.001-0.001,0.001-0.001,0.001c-0.001,0-0.001,0-0.002,0    c0,0-0.003,0.001-0.004,0.001s-0.001,0-0.001,0c-0.001,0-0.002,0.001-0.002,0.001c-0.001,0-0.001,0-0.002,0.001    c-0.002,0-0.003,0-0.003,0h-0.001c-0.001,0.001-0.002,0.001-0.003,0.001c0,0-0.002,0-0.003,0.001c0,0,0,0-0.001,0    s-0.002,0.001-0.002,0.001c-0.001,0-0.002,0-0.004,0c0,0.001,0,0.001-0.001,0.001c0,0-0.001,0-0.002,0    c0,0-0.001,0.001-0.002,0.001c-0.002,0-0.002,0-0.003,0.001h-0.001c-0.001,0-0.001,0-0.003,0c0,0.001-0.002,0.001-0.003,0.001    h-0.001c-0.001,0.001-0.001,0.001-0.002,0.001c-0.001,0.001-0.001,0.001-0.002,0.001c0,0-0.002,0-0.003,0    c0,0.001-0.001,0.001-0.001,0.001c-0.001,0-0.002,0-0.002,0.001c-0.001,0-0.003,0-0.003,0c-0.001,0-0.002,0-0.002,0.001    c-0.001,0-0.001,0-0.002,0s-0.001,0-0.004,0.001c0,0-0.001,0.001-0.001,0c0,0.001-0.001,0.001-0.002,0.001    c0,0-0.001,0-0.001,0.001c-0.001-0.001-0.003,0-0.004,0c0,0-0.001,0-0.001,0.001c-0.001,0-0.002,0-0.003,0    c0,0-0.002,0.001-0.002,0c-0.001,0.001-0.001,0.001-0.002,0.001c-0.001,0.001-0.001,0-0.001,0.001c-0.001,0-0.002,0-0.003,0.001    c-0.002,0-0.002-0.001-0.002,0c-0.001,0-0.002,0.001-0.003,0.001l0,0c-0.001,0-0.004,0.001-0.004,0.001c-0.001,0-0.001,0-0.002,0    C68.039,43.5,68.038,43.5,68.037,43.5l0,0c-0.001,0.001-0.003,0.001-0.004,0.001s-0.001,0-0.001,0    c-0.001,0.001-0.002,0.001-0.003,0.002l-0.002-0.001c-0.001,0.001-0.002,0.001-0.003,0.002l0,0c-0.001,0-0.004,0-0.005,0.001l0,0    c-0.002,0-0.002,0.001-0.004,0.001c-0.001,0-0.001,0-0.004,0.001l0,0c-0.002,0-0.003,0.001-0.004,0.001l0,0    c-0.002,0.001-0.003,0.001-0.005,0.001c0,0,0,0,0,0.001c-0.001,0-0.002,0-0.003,0l-0.002,0.001c-0.001,0-0.002,0.001-0.003,0.001    c0,0,0,0,0-0.001c-0.001,0.001-0.002,0.001-0.005,0.002l0,0c-0.003,0.001-0.005,0.002-0.008,0.002c0,0,0,0-0.001,0    c-0.001,0.001-0.002,0.001-0.003,0.001l0,0c-0.004,0.001-0.006,0.002-0.01,0.003l0,0c-0.002,0-0.005,0.001-0.008,0.002    c-0.028,0.009-0.055,0.018-0.083,0.027l-0.551-1.663c0.897-0.297,1.828-0.452,2.77-0.461l0.018,1.751    c-0.12,0.001-0.241,0.006-0.359,0.013h-0.001c-0.002,0-0.006,0.001-0.008,0l0,0c-0.004,0.001-0.006,0.001-0.009,0.001    c0,0,0,0-0.002,0c-0.001,0-0.002,0-0.003,0h-0.001c-0.001,0-0.003,0-0.004,0.001l0,0c-0.001-0.001-0.002,0-0.004,0l0,0    c-0.002-0.001-0.004,0-0.005,0s-0.003,0-0.005,0l0,0c-0.001,0-0.002,0-0.004,0c0,0.001,0,0.001,0,0.001c-0.001,0-0.003,0-0.004,0    s-0.001,0-0.001,0c-0.001,0-0.003,0-0.004,0l0,0c-0.004,0-0.006,0-0.009,0.001h-0.001c-0.001-0.001-0.002,0-0.003,0    s-0.001,0-0.001,0c-0.001,0-0.003,0-0.004,0h-0.001c-0.001,0-0.002,0-0.003,0l-0.002,0.001c-0.001,0-0.002-0.001-0.003,0    c-0.001,0-0.001,0-0.001,0c-0.001,0-0.003,0-0.004,0c0,0,0,0-0.001,0s-0.002,0-0.004,0l0,0c-0.002,0-0.003,0-0.004,0.001    c0-0.001-0.001,0-0.001,0c-0.001-0.001-0.002,0-0.004,0h-0.001c-0.001,0-0.002,0-0.003,0l0,0c-0.001,0-0.002,0-0.005,0h-0.001    c-0.001,0-0.002,0.001-0.003,0c0,0.001-0.002,0.001-0.002,0.001c-0.001,0-0.002,0-0.002,0c-0.001,0-0.001,0-0.002,0    s-0.002,0-0.004,0L69.633,43.2c-0.001,0-0.001-0.001-0.002-0.001S69.63,43.2,69.63,43.2c-0.003,0-0.003,0-0.004,0    s-0.002,0-0.002,0c-0.001,0-0.001,0-0.002,0c-0.002,0-0.002,0-0.003,0c0,0-0.002,0-0.002,0.001c-0.001-0.001-0.001,0-0.001,0    c-0.002,0-0.002,0-0.005,0H69.61c-0.001,0-0.001,0-0.002,0s-0.001,0-0.001,0c-0.002,0.001-0.003,0-0.004,0    c-0.001,0.001-0.001,0-0.001,0.001c-0.001-0.001-0.002,0-0.004,0c0,0-0.001,0-0.002,0c0,0-0.001,0-0.002,0s-0.001,0-0.001,0    c-0.003,0-0.003,0-0.004,0s-0.001,0-0.001,0c-0.001,0-0.002,0.001-0.002,0.001c-0.001,0-0.001,0-0.003,0c-0.001,0-0.002,0-0.003,0    H69.58c-0.001,0-0.002,0-0.004,0c0,0-0.001,0-0.002,0.001h-0.001c-0.001,0-0.002,0-0.002,0c-0.002,0-0.002,0-0.003,0    s-0.002,0-0.002,0c-0.001,0-0.001,0-0.002,0s-0.001,0.001-0.003,0c0,0-0.002,0-0.003,0.001c-0.001,0-0.001,0-0.002,0h-0.002    c-0.001,0-0.002,0-0.003,0h-0.001c-0.001,0-0.001,0-0.003,0c-0.001,0.001-0.001,0.001-0.001,0.001c-0.001,0-0.002,0-0.004,0    c-0.001,0-0.001,0-0.001,0c-0.002,0-0.002,0-0.003,0h-0.001c-0.001,0-0.002,0-0.005,0.001c0,0,0,0-0.001,0s-0.002,0-0.003,0    h-0.001c-0.001,0-0.001,0-0.003,0c0,0,0,0-0.002,0c-0.001,0.001-0.002,0.001-0.003,0.001h-0.002c0,0-0.001,0-0.002,0h-0.001    c-0.001,0-0.002,0-0.003,0c0,0.001-0.002,0.001-0.002,0.001c-0.003,0-0.005,0-0.008,0h-0.001c-0.001,0-0.003,0-0.005,0.001l0,0    c-0.001,0-0.002,0-0.003,0l0,0c-0.002,0-0.003,0-0.005,0h-0.001c-0.002,0.001-0.006,0.001-0.008,0.001c0,0,0,0-0.001,0    s-0.002,0-0.005,0.001c-0.001,0-0.002,0-0.003,0l0,0c-0.002,0-0.004,0-0.005,0h-0.001c-0.002,0-0.006,0.001-0.008,0.001l0,0    c-0.002,0-0.006,0-0.008,0.001c0,0,0,0-0.001-0.001c-0.001,0.001-0.004,0.001-0.005,0.001l0,0    C69.441,43.216,69.438,43.217,69.436,43.217z M67.493,45.375c0.664-0.345,1.395-0.564,2.153-0.635l0.078,0.828    c0.606-0.057,1.215-0.002,1.809,0.163c0.034,0.01,0.07,0.021,0.106,0.032l0.241-0.796c0.745,0.226,1.413,0.587,1.984,1.051    l-0.525,0.646c0.505,0.409,0.92,0.906,1.235,1.479l0.729-0.401c0.359,0.657,0.595,1.383,0.683,2.139l-0.826,0.096    c0.075,0.644,0.023,1.289-0.151,1.919c-0.041,0.144-0.087,0.287-0.14,0.425l0.778,0.294c-0.271,0.725-0.678,1.368-1.182,1.908    l-0.608-0.565c-0.442,0.476-0.968,0.856-1.558,1.133l0.35,0.754c-0.678,0.314-1.416,0.502-2.179,0.538l-0.041-0.83    c-0.532,0.026-1.066-0.034-1.586-0.179c-0.106-0.031-0.214-0.064-0.319-0.101l-0.276,0.784c-0.731-0.257-1.384-0.647-1.935-1.138    l0.553-0.622c-0.486-0.433-0.879-0.947-1.167-1.533l-0.746,0.368c-0.332-0.671-0.534-1.406-0.588-2.167l0.829-0.059    c-0.04-0.57,0.017-1.141,0.173-1.698c0.021-0.072,0.042-0.144,0.065-0.213l-0.791-0.258c0.241-0.74,0.618-1.399,1.095-1.96    l0.635,0.538c0.42-0.495,0.927-0.899,1.506-1.2L67.493,45.375z M72.358,43.506l0.515-1.673c0.903,0.278,1.752,0.691,2.523,1.227    l-1,1.437C73.788,44.074,73.104,43.735,72.358,43.506z M77.332,52.372c0-0.001,0-0.002,0.001-0.003v-0.001    c0-0.002,0-0.003,0.001-0.004v-0.001c0.001-0.001,0.001-0.002,0.001-0.004l0,0c0.001-0.002,0.001-0.003,0.001-0.004    c0,0,0,0,0-0.001c0.002-0.002,0.002-0.003,0.002-0.004c0.001-0.001,0.001-0.003,0.001-0.004c0,0,0,0,0-0.002    c0.001-0.002,0.001-0.004,0.002-0.008l0,0c0.001-0.001,0.001-0.003,0.001-0.004l0,0c0.001-0.001,0.001-0.003,0.001-0.004    s0-0.001,0-0.001c0.001-0.001,0.001-0.003,0.001-0.005l0,0c0-0.001,0-0.002,0.002-0.003c0,0,0,0,0-0.001s0-0.003,0.001-0.004    c0-0.001,0-0.001,0-0.001c0-0.001,0-0.002,0.001-0.003c0,0,0,0,0-0.001c0-0.002,0-0.003,0.001-0.004c0,0,0,0,0-0.001    s0-0.002,0-0.004v-0.001c0.001-0.001,0.001-0.002,0.001-0.003v-0.001c0.001-0.001,0.001-0.001,0.001-0.004l0,0    c0.002-0.001,0.003-0.003,0.003-0.004c0,0,0,0,0-0.002c0-0.001,0-0.002,0.001-0.003c0-0.001,0-0.002,0.001-0.003v-0.002    c0-0.001,0-0.003,0.001-0.004c0-0.001,0-0.003,0.001-0.004v-0.001c0-0.001,0-0.002,0-0.003v-0.002    c0.001-0.001,0.001-0.002,0.001-0.003v-0.001c0.002-0.001,0.002-0.002,0.002-0.004v-0.001c0.001-0.001,0.001-0.002,0.001-0.003    l0,0c0-0.003,0.001-0.004,0.001-0.005c0,0,0,0,0-0.001s0.001-0.002,0.001-0.003l0,0c0-0.002,0.001-0.003,0.001-0.005    c0,0,0,0,0-0.001s0.001-0.003,0.001-0.004l0,0c0-0.001,0-0.003,0.002-0.003v-0.001c0-0.003,0-0.003,0.001-0.005    c0-0.001,0-0.002,0-0.003v-0.002c0.001-0.001,0.001-0.002,0.001-0.004c0-0.001,0.001-0.003,0.001-0.004l0.001-0.001    c0-0.002,0.001-0.006,0.001-0.008c0,0,0,0,0-0.001c0.002-0.001,0.002-0.002,0.002-0.004l0,0c0-0.001,0.001-0.002,0.001-0.004l0,0    c0.001-0.003,0.001-0.004,0.001-0.005c0,0,0,0,0-0.001s0-0.002,0.001-0.003l0,0c0-0.002,0-0.003,0.001-0.005l0,0    c0-0.002,0-0.004,0.001-0.005l0,0c0-0.001,0-0.002,0-0.003s0-0.001,0.001-0.001c0-0.004,0-0.006,0.002-0.01l0,0    c0.001-0.002,0.001-0.004,0.002-0.008v-0.001c0.001-0.002,0.001-0.006,0.001-0.008h0.001c0-0.001,0-0.003,0-0.005    c0.001-0.001,0.001-0.003,0.001-0.004l0,0c0.002-0.001,0.002-0.004,0.003-0.005l0,0c0-0.001,0-0.002,0-0.004l0,0    c0.001-0.002,0.001-0.004,0.001-0.005l0,0c0-0.001,0.001-0.002,0.001-0.003c0-0.002,0-0.002,0-0.002    c0-0.001,0.001-0.002,0.001-0.003v-0.001c0-0.001,0.001-0.003,0.001-0.004v-0.001c0-0.001,0-0.002,0-0.003c0,0,0,0,0.001-0.002    c0-0.001,0-0.002,0-0.003c0.002-0.001,0.002-0.003,0.002-0.005l0,0c0.001-0.003,0.001-0.005,0.002-0.009l0,0    c0-0.001,0-0.003,0.001-0.004c0-0.002,0-0.003,0-0.005c0,0,0,0,0.001,0c0-0.001,0-0.002,0.001-0.005c-0.001-0.001,0-0.002,0-0.003    s0-0.001,0-0.001c0-0.002,0-0.003,0.002-0.005l0,0c0-0.001,0-0.002,0.001-0.003v-0.002c0-0.001,0.001-0.002,0.001-0.003l0,0    c0-0.002,0-0.004,0-0.005l0,0c0.001-0.002,0.001-0.003,0.002-0.004V52.05c0-0.003,0-0.005,0.001-0.009l0,0    c0.002-0.003,0.002-0.005,0.003-0.009l0,0c0-0.003,0.001-0.006,0.001-0.009l0,0c0.001-0.002,0.001-0.006,0.002-0.008l0,0    c0-0.002,0.001-0.004,0-0.005c0.001-0.002,0.001-0.003,0.001-0.004c0,0,0,0,0-0.002c0.001-0.001,0.001-0.002,0.001-0.003v-0.001    c0-0.001,0.002-0.002,0.002-0.004c0-0.001,0-0.003,0.001-0.004c0,0,0,0,0-0.001c0-0.003,0.001-0.005,0.001-0.009l0,0    c0.001-0.003,0.001-0.005,0.002-0.009l0,0c0.001-0.003,0.001-0.006,0.003-0.008c0,0,0,0,0-0.001c0-0.002,0.001-0.006,0.001-0.008    c0,0,0,0,0-0.001c0-0.003,0.001-0.006,0.002-0.008c0,0,0,0,0-0.002c0-0.001,0-0.002,0-0.003c0.001-0.002,0.001-0.003,0.001-0.005    l0,0c0-0.001,0.001-0.003,0.001-0.004c0-0.004,0.001-0.007,0.001-0.009c0.002-0.003,0.002-0.006,0.003-0.01l0,0    c0-0.002,0.001-0.005,0.001-0.008s0.001-0.006,0.002-0.01c0-0.003,0.001-0.005,0.001-0.008l0,0c0-0.004,0.002-0.006,0.002-0.01    l0,0c0.001-0.001,0.001-0.003,0.002-0.004c0-0.001,0-0.002,0-0.005c0-0.001,0-0.002,0.001-0.004c0-0.004,0.001-0.006,0.001-0.009    c0,0,0,0,0-0.001c0.001-0.002,0.001-0.005,0.003-0.008l0,0c0-0.003,0.001-0.007,0.001-0.009c0.001-0.003,0.001-0.007,0.001-0.009    c0.001-0.003,0.001-0.006,0.001-0.01c0.001,0,0.001,0,0.001,0c0.006-0.034,0.013-0.07,0.017-0.105    c0.079-0.482,0.107-0.964,0.091-1.439l1.75-0.064c0.033,0.939-0.077,1.876-0.331,2.787c-0.088,0.313-0.192,0.623-0.312,0.925    l-1.628-0.646c0-0.001,0-0.001,0.001-0.001c0-0.002,0.001-0.003,0.001-0.003v-0.001c0,0,0-0.001,0-0.002l0,0    c0.002-0.001,0.003-0.004,0.003-0.006v-0.001c0.001,0,0.001-0.001,0.001-0.001c0.001-0.002,0.001-0.003,0.001-0.004l0,0    c0.001-0.001,0.001-0.001,0.001-0.002c0,0,0,0,0-0.001c0,0,0.001-0.001,0.001-0.003l0,0c0.001,0,0.001-0.001,0.001-0.002l0,0    c0-0.001,0-0.001,0.002-0.003l0,0c0-0.002,0.001-0.002,0.001-0.003s0.001-0.002,0.001-0.003c0.07-0.179,0.133-0.36,0.189-0.548    c0.001-0.001,0.001-0.003,0.002-0.006c0-0.001,0-0.002,0-0.003c0.002,0,0.002-0.001,0.003-0.002c0-0.002,0-0.003,0-0.004    s0.001-0.002,0.001-0.002s0,0,0.001-0.001c0,0,0-0.001,0-0.003l0,0c0-0.001,0.001-0.002,0.001-0.002c0-0.001,0-0.001,0-0.001    c0-0.001,0-0.002,0.001-0.002c0,0,0,0,0-0.002c0.003-0.006,0.005-0.015,0.007-0.022c0-0.001,0-0.002,0-0.003    c0.001,0,0.001,0,0.001,0c0-0.001,0-0.002,0-0.004l0,0c0.002-0.001,0.002-0.002,0.002-0.002v-0.001c0-0.001,0-0.001,0.001-0.002    l0,0c0-0.002,0-0.003,0-0.003c0-0.001,0-0.001,0.001-0.001c0-0.001,0-0.001,0-0.002V52.63c0,0,0.001-0.001,0.001-0.003    c0,0,0,0,0-0.001v-0.001c0.001,0,0.001-0.001,0.001-0.001c0-0.001,0.001-0.001,0.001-0.002l0,0c0-0.002,0.002-0.003,0.002-0.003    c0-0.001,0-0.001,0-0.001c0-0.001,0-0.001,0.001-0.002c0,0,0,0,0-0.001s0-0.001,0-0.001c0-0.002,0-0.002,0-0.002    c0.001-0.001,0.001-0.001,0.001-0.002v-0.001c0-0.001,0.001-0.001,0.001-0.002v-0.002v-0.001c0-0.001,0.001-0.001,0.001-0.001    c0-0.001,0-0.002,0-0.002v-0.001c0,0,0.001-0.002,0.001-0.003l0,0c0-0.002,0.001-0.004,0.001-0.007h0.002c0-0.001,0-0.002,0-0.002    c0-0.001,0-0.001,0-0.001c0.001-0.001,0.001-0.001,0.001-0.002v-0.002c0,0,0-0.001,0.001-0.002v-0.001V52.58    c0-0.001,0-0.001,0.001-0.001c0-0.001,0-0.001,0-0.003v-0.001c0.001-0.001,0.001-0.001,0.001-0.001c0-0.001,0-0.001,0-0.001    c0-0.001,0-0.001,0-0.002c0.001-0.002,0.001-0.002,0.001-0.003c0,0,0,0,0-0.001c0,0,0-0.001,0.002-0.001v-0.001v-0.001    c0-0.002,0.001-0.002,0.001-0.003v-0.001V52.56c0.001-0.001,0.001-0.001,0.001-0.002l0.001-0.001v-0.002c0-0.001,0-0.001,0-0.001    c0-0.001,0.001-0.001,0.001-0.002s0-0.001,0-0.001c0-0.001,0-0.001,0-0.001c0-0.002,0.001-0.002,0.001-0.003v-0.001    c0-0.001,0-0.001,0-0.001c0.002-0.001,0.002-0.001,0.002-0.002v-0.001V52.54c0.001-0.001,0.001-0.002,0.001-0.002v-0.001    c0,0,0-0.001,0.001-0.002c0,0,0,0,0-0.002c0,0,0-0.001,0.001-0.002c0-0.001,0-0.002,0-0.003c0.001-0.001,0.001-0.001,0.001-0.003    c0-0.001,0-0.002,0.001-0.002c0-0.001,0-0.001,0-0.001c0-0.001,0-0.002,0.001-0.004c0,0,0,0,0-0.001s0-0.002,0.002-0.004l0,0    c0-0.002,0-0.003,0.001-0.004c0-0.001,0-0.001,0-0.001c0-0.001,0-0.002,0.001-0.003v-0.002c0,0,0.001-0.002,0.001-0.003l0,0    c0.001-0.002,0.001-0.004,0.001-0.005v-0.001c0-0.001,0-0.001,0.001-0.003l0,0c0.002-0.001,0.002-0.004,0.002-0.005    c0,0,0,0,0.001-0.001c0,0,0-0.002,0-0.004l0,0c0.001-0.001,0.001-0.002,0.001-0.003s0.001-0.001,0.001-0.001    c0-0.003,0-0.003,0-0.005c0,0,0,0,0.001,0c0-0.001,0-0.002,0-0.003c0.001-0.001,0.001-0.001,0.001-0.001    c0-0.002,0-0.003,0.001-0.005l0,0c0-0.001,0-0.002,0-0.004c0.002,0,0.002-0.001,0.002-0.001c0-0.001,0-0.002,0.001-0.003v-0.001    c0-0.001,0-0.003,0.001-0.004v-0.001c0-0.001,0-0.002,0.001-0.003v-0.002c0-0.001,0.001-0.002,0.001-0.002    c0-0.001,0-0.001,0-0.001c0-0.002,0.001-0.004,0-0.005c0.001,0,0.001,0,0.001-0.001s0-0.002,0-0.003h0.002    c0-0.003,0.001-0.003,0.001-0.005l0,0c0-0.002,0.001-0.002,0.001-0.003v-0.002c0.001-0.001,0.001-0.002,0.001-0.003    s0-0.001,0-0.001c0.001-0.001,0.001-0.002,0.001-0.004c0,0,0,0,0-0.001s0.001-0.002,0.001-0.003c0,0,0,0,0-0.001    c0-0.002,0.002-0.003,0.002-0.004v-0.001c0-0.001,0.001-0.002,0.001-0.003v-0.002c0-0.001,0.001-0.002,0.001-0.003    c0.001-0.002,0.001-0.004,0.001-0.005l0,0c0-0.002,0.001-0.003,0.001-0.004v-0.002c0-0.001,0.001-0.001,0.001-0.002    s0-0.001,0-0.001c0-0.001,0.001-0.003,0.001-0.005l0,0c0-0.001,0.002-0.002,0.002-0.003v-0.001    C77.332,52.376,77.332,52.374,77.332,52.372L77.332,52.372z M77.125,48.054c-0.146-0.405-0.327-0.794-0.539-1.167    c-0.003-0.001-0.003-0.003-0.004-0.004c-0.001-0.002-0.003-0.005-0.004-0.007v-0.001c-0.002-0.001-0.003-0.004-0.005-0.007l0,0    c0-0.001-0.001-0.002-0.002-0.004l0,0c-0.002-0.002-0.003-0.004-0.004-0.007c0,0,0,0-0.001-0.001s-0.001-0.002-0.002-0.003v-0.001    l-0.001-0.001v-0.001c-0.002-0.001-0.003-0.002-0.003-0.004H76.56c-0.001-0.002-0.002-0.004-0.003-0.007    c-0.002-0.001-0.002-0.001-0.002-0.001c0-0.001-0.001-0.002-0.002-0.003l0,0c-0.001-0.001-0.001-0.002-0.001-0.002    c0-0.001,0-0.001,0-0.001c-0.001-0.001-0.002-0.002-0.002-0.003l-0.001-0.001c-0.002-0.001-0.002-0.002-0.003-0.003    c0-0.001,0-0.001,0-0.001c0-0.001-0.001-0.001-0.001-0.002c0,0,0,0-0.001-0.001c0-0.001-0.001-0.001-0.001-0.002    c0-0.001-0.001-0.001-0.001-0.002c0,0,0-0.001-0.002-0.001c0-0.001,0-0.001-0.001-0.002c0,0-0.001-0.001-0.001-0.002    c-0.001,0-0.001-0.001-0.001-0.001c-0.001-0.001-0.001-0.002-0.001-0.003c-0.001-0.001-0.001-0.001-0.001-0.001    C76.534,46.8,76.534,46.8,76.534,46.8c0-0.001,0-0.001-0.002-0.002c0-0.001-0.001-0.001-0.001-0.002    c0-0.001-0.001-0.001-0.001-0.002c0,0,0-0.001-0.001-0.001c0,0,0-0.001-0.001-0.002c0,0-0.001-0.001-0.001-0.002l-0.002-0.001    c0-0.001,0-0.001-0.001-0.002c0,0-0.001-0.001-0.001-0.002c0,0,0-0.001-0.001-0.001c0-0.001-0.001-0.002-0.001-0.002    c0-0.001-0.001-0.001-0.001-0.002l-0.002-0.001c0-0.001-0.001-0.001-0.001-0.002c0,0-0.001-0.001-0.001-0.002    c-0.001-0.001-0.001-0.001-0.001-0.002l-0.001-0.001c0-0.001-0.001-0.001-0.001-0.001c0-0.001-0.001-0.002-0.001-0.003    c-0.002,0-0.002-0.001-0.002-0.001c0-0.001-0.001-0.002-0.001-0.002c-0.001-0.001-0.001-0.001-0.001-0.002l-0.001-0.001    c-0.001-0.001,0-0.001-0.001-0.002c0,0-0.001-0.001-0.001-0.002l-0.002-0.001c0-0.001-0.001-0.002-0.001-0.002l-0.001-0.001    c-0.001-0.001-0.001-0.002-0.001-0.003c-0.001,0-0.001-0.001-0.001-0.001c-0.001-0.001-0.001-0.002-0.003-0.003l0,0    c-0.001-0.001-0.001-0.001-0.001-0.002c-0.001-0.001-0.001-0.001-0.001-0.001c0-0.001-0.001-0.002-0.002-0.003    c0-0.001,0-0.001,0-0.001c0-0.001-0.001-0.001-0.001-0.002c-0.001,0-0.001-0.001-0.001-0.001c0-0.001-0.002-0.002-0.003-0.003    c0,0,0,0,0-0.001c0-0.001-0.001-0.001-0.002-0.002c0-0.001,0-0.001-0.001-0.001c0-0.001,0-0.002-0.001-0.003c0,0,0,0-0.002,0    c0-0.001,0-0.002-0.001-0.003l-0.001-0.001c0-0.001,0-0.001-0.001-0.002v-0.001c0-0.001-0.001-0.002-0.002-0.003c0,0,0,0,0-0.001    c-0.001,0-0.001-0.001-0.003-0.002l0,0c-0.001-0.001-0.001-0.002-0.002-0.003v-0.001c-0.001-0.001-0.001-0.001-0.002-0.003    c0,0,0,0-0.001,0c-0.002-0.003-0.003-0.004-0.004-0.006l-0.001-0.001c0-0.001-0.001-0.002-0.002-0.003    c0-0.001-0.001-0.002-0.003-0.003v-0.001c0-0.001-0.001-0.001-0.002-0.003l0,0c-0.001-0.002-0.002-0.004-0.003-0.008h-0.002    c0,0-0.001-0.002-0.002-0.003c-0.001-0.002-0.003-0.004-0.005-0.007v-0.001c-0.001-0.002-0.003-0.004-0.004-0.007c0,0,0,0,0-0.001    c-0.002-0.003-0.005-0.007-0.007-0.01c-0.124-0.198-0.256-0.388-0.398-0.574l1.391-1.065c0.572,0.747,1.025,1.575,1.345,2.46    L77.125,48.054z M77.237,56.346c-0.598,0.728-1.302,1.354-2.095,1.867l-0.95-1.471c0.635-0.411,1.207-0.918,1.693-1.509    L77.237,56.346z M71.065,57.873L71.065,57.873c0.004,0,0.006-0.001,0.009-0.001l0,0c0.004,0,0.007,0,0.01-0.001l0,0    c0.001,0,0.003,0,0.004-0.001c0.001,0,0.003,0,0.005,0c0.001,0,0.002-0.002,0.003,0c0.004-0.002,0.007-0.002,0.01-0.002    c0.003-0.001,0.005-0.001,0.009-0.002c0.015-0.001,0.029-0.003,0.044-0.004c0.01-0.002,0.021-0.004,0.031-0.005    c0.164-0.022,0.326-0.051,0.486-0.084c0.009-0.002,0.015-0.003,0.021-0.004c0.004-0.001,0.006-0.001,0.01-0.003l0,0    c0.001,0,0.003,0,0.004-0.001c0.004,0,0.006-0.001,0.01-0.002c0.002,0,0.004-0.001,0.008-0.001    c0.004-0.001,0.009-0.003,0.013-0.004c0.003,0,0.006,0,0.009-0.001l0,0c0.003-0.001,0.007-0.001,0.009-0.002    c0.001,0,0.002,0,0.004-0.001l0,0c0.003,0,0.006-0.001,0.009-0.001c0,0,0,0,0.001,0c0.002-0.002,0.004-0.002,0.008-0.003l0,0    c0.001,0,0.003,0,0.004-0.001c0.002,0,0.003,0,0.005-0.001c0.001,0,0.004,0,0.005,0c0.001-0.001,0.002-0.001,0.003-0.001    c0.002-0.001,0.002-0.001,0.005-0.003c0,0,0,0,0,0.002c0.003-0.002,0.006-0.002,0.009-0.003l0,0c0.001,0,0.002-0.001,0.003-0.001    h0.002c0.001-0.001,0.002-0.001,0.003-0.001l0,0c0.001,0,0.004,0,0.005-0.001l0,0c0.003,0,0.006-0.001,0.008-0.001    c0.001,0,0.001,0,0.001,0c0.002-0.001,0.005-0.003,0.008-0.003l0,0c0.002-0.001,0.004-0.001,0.005-0.001c0,0,0,0,0.001,0    l0.002-0.001c0.001,0,0.001,0,0.001,0c0.001,0,0.003-0.001,0.004-0.001s0.001,0,0.001,0c0.001,0,0.002,0,0.005-0.001l0,0    c0.001,0,0.002,0,0.003,0c0,0,0.001,0,0.001-0.001c0.001,0,0.002,0,0.004,0c0,0,0-0.002,0.001,0c0.001,0,0.002-0.002,0.002-0.002    c0.001,0,0.001,0,0.001,0c0.001-0.001,0.003-0.001,0.004-0.001c0,0,0.001,0,0.001-0.001c0.001,0,0.002,0,0.003,0    c0.002,0,0.002,0,0.002,0c0.001-0.001,0.002-0.001,0.003-0.001h0.001c0.001-0.001,0.002-0.001,0.004-0.001l0,0    c0.002,0,0.002,0,0.003-0.001c0.001,0,0.001,0,0.001,0c0.003,0,0.004-0.002,0.005-0.002l0,0c0.001,0,0.002,0,0.003-0.001H71.9    c0.002,0,0.003,0,0.004,0c0,0,0-0.001,0.001-0.001s0.002,0,0.002,0c0.002,0,0.002-0.001,0.002-0.001c0.001,0,0.003,0,0.003,0    c0.001,0,0.001,0,0.002-0.001c0.002,0,0.002,0,0.003,0s0.001-0.001,0.001,0c0.001,0,0.002-0.001,0.003-0.001c0,0,0,0,0.001,0    c0.002-0.001,0.003-0.001,0.003-0.001c0.001,0,0.001,0,0.002,0c0,0,0.001,0,0.004-0.002c0,0,0,0,0.001,0    c0,0,0.001-0.001,0.002-0.001s0.001,0,0.001,0c0.001,0,0.002,0,0.004,0c0-0.001,0.001-0.001,0.001-0.001    c0.001,0,0.002,0,0.002-0.001c0.001,0.001,0.001,0.001,0.002,0c0.002-0.001,0.003-0.001,0.003-0.001c0.002,0,0.002,0,0.002,0    c0.001,0,0.002,0,0.002-0.001c0.002,0,0.002,0,0.003,0c0,0,0.001,0,0.002-0.002c0.001,0.002,0.001,0,0.001,0    c0.001,0,0.002,0,0.002,0c0.002-0.001,0.003-0.001,0.004-0.001c0,0,0.001,0,0.002,0l0.001-0.001c0.002,0,0.003,0,0.003,0    c0.001,0,0.002-0.001,0.002-0.001c0.001,0,0.002,0,0.002,0h0.001c0.002-0.001,0.003-0.001,0.004-0.001c0,0,0.001,0,0.002-0.001    c0,0,0,0.001,0.001,0c0.002,0,0.003,0,0.004-0.001h0.001c0.001,0,0.002,0,0.002,0c0.001-0.002,0.001-0.002,0.003-0.002h0.002    c0.001-0.001,0.001-0.001,0.002-0.001h0.001c0.002,0,0.003-0.001,0.003-0.001c0.001,0,0.002,0,0.003,0l0.001-0.001    c0.002,0,0.003,0,0.003,0c0.001,0,0.002,0,0.002-0.001c0.001,0,0.002,0,0.002,0c0.001,0,0.001,0,0.001,0    c0.003-0.001,0.003-0.001,0.005-0.001c0,0,0,0,0-0.002c0.001,0,0.002,0,0.002,0c0.002-0.001,0.002-0.001,0.003-0.001    s0.002,0,0.003,0l0.001-0.001c0.003,0,0.005-0.001,0.007-0.001c0.001,0,0.001,0,0.001,0c0.003-0.001,0.006-0.002,0.009-0.002l0,0    c0.002-0.002,0.003-0.002,0.005-0.002c0.003-0.001,0.005-0.001,0.008-0.003v0.001c0.004-0.001,0.006-0.002,0.008-0.002    c0.021-0.006,0.042-0.012,0.062-0.017l0.462,1.689c-0.911,0.248-1.851,0.354-2.792,0.311l0.078-1.749    c0.242,0.012,0.484,0.01,0.725-0.004c0.002,0,0.006,0,0.008,0c0.003,0,0.007,0,0.009-0.001c0.003,0,0.004,0.001,0.006,0    c0.002,0,0.006,0,0.009,0l0,0c0.003,0,0.006,0,0.008,0l0,0c0.006-0.002,0.01-0.002,0.014-0.002h0.001    c0.003-0.001,0.005-0.001,0.008-0.001c0.004,0,0.006,0,0.009,0h0.001c0.001,0,0.003,0,0.004,0v-0.001c0.004,0.001,0.007,0,0.008,0    c0.002,0,0.002,0,0.003,0c0.002,0,0.004,0,0.007,0c0-0.001,0-0.001,0.001,0c0.001-0.001,0.002-0.001,0.003-0.001s0.003,0,0.003,0    s0.001,0,0.002,0c0,0,0,0,0.001,0s0.002,0,0.004,0c0.001,0,0.001,0,0.001,0c0.001,0,0.001,0,0.002,0l0.001-0.001    c0.001,0,0.002,0,0.004,0c0.001,0,0.001,0,0.002,0c0.001-0.001,0.003,0,0.005,0l0,0c0.001-0.001,0.002-0.001,0.003,0l0,0    c0.001-0.001,0.004-0.001,0.005-0.001h0.001c0,0,0.001,0,0.002,0h0.001c0.003,0,0.004,0,0.005-0.002c0,0.002,0.001,0.002,0.001,0    c0.001,0.002,0.004,0,0.005,0l0,0c0.001,0,0.001,0,0.002,0s0.001,0,0.001,0c0.001-0.001,0.002,0,0.005-0.001    c0,0.001,0.001,0.001,0.001,0c0.001,0.001,0.001,0,0.002,0.001c0.001,0,0.001-0.001,0.001-0.001c0.003,0,0.003,0,0.004,0    s0.001,0,0.002,0c0,0,0.001,0,0.002,0c0,0,0.002,0,0.003,0c0,0,0.001-0.001,0.002-0.001c0.001,0.001,0.001,0,0.002,0    c0,0,0.002,0.001,0.003,0c0,0,0.001,0,0.002,0s0.001,0,0.001,0c0.001,0,0.003,0,0.004,0c0,0,0.001,0,0.002,0    c0,0,0.001,0,0.002-0.001c0,0,0,0,0.001,0c0.002,0,0.003,0,0.004,0s0.001,0,0.002,0h0.001c0.002,0,0.003,0,0.003,0    c0.001,0,0.002,0,0.003,0c0-0.001,0.001,0,0.001,0c0.002,0,0.002-0.001,0.003-0.001h0.002c0.001,0,0.002,0,0.003,0h0.002    c0.001,0,0.002,0,0.002,0c0.001,0,0.001-0.001,0.002-0.001s0.003,0,0.003,0.001c0.001-0.001,0.001-0.001,0.002-0.001    c0,0,0.001,0,0.002,0s0.001,0,0.002,0c0.002,0,0.002-0.001,0.003,0c0-0.001,0.001,0,0.001-0.001c0.001,0.001,0.002,0,0.003,0    c0.002,0,0.002,0,0.003,0c0,0,0.001,0,0.002,0h0.001c0.001,0,0.002,0,0.004,0c0-0.002,0.001-0.002,0.002-0.002    c0,0,0.001,0,0.002,0s0.001,0,0.003,0c0,0,0.001,0,0.002,0h0.001c0.001,0,0.002,0,0.004,0l0.001-0.001c0.001,0,0.002,0,0.002,0    c0.001,0,0.001,0,0.002,0s0.003,0,0.004,0h0.001c0.001,0,0.002-0.001,0.002-0.001c0.001,0,0.001,0.001,0.003,0    c0.001,0,0.002,0,0.002,0c0.001,0,0.001,0,0.002,0s0.001,0,0.002,0c0.002,0,0.002,0,0.003,0c0.001-0.001,0.002,0,0.002,0    c0.001-0.001,0.001-0.001,0.002-0.001h0.003c0.001,0,0.001,0,0.002,0c0,0,0.001,0,0.002,0h0.001c0.002-0.001,0.003,0,0.004-0.001    h0.001c0.001,0,0.002,0,0.004,0c0.001,0,0.001,0,0.001,0c0.001,0,0.002,0,0.003,0c0-0.001,0.001,0,0.001,0    c0.002-0.001,0.003-0.001,0.004-0.001s0.001,0,0.001,0c0.001,0,0.002,0,0.002,0c0.001,0,0.001,0,0.003,0    c0-0.002,0.002,0,0.003-0.002c0.001,0,0.001,0,0.001,0c0.001,0,0.003,0,0.004,0l0,0c0.002,0,0.003,0,0.004,0l0,0    c0.003-0.001,0.004-0.001,0.005-0.001l0,0c0.001,0,0.003,0,0.005-0.001c0,0,0,0,0.001,0.001c0.001-0.001,0.002,0,0.003-0.001l0,0    c0.003,0,0.003,0,0.004,0h0.001c0.001-0.001,0.002,0,0.003-0.001c0,0,0.001,0.001,0.003,0c0,0,0.001,0,0.003,0l0,0    c0.001,0,0.002,0,0.004,0c0.001,0,0.001,0,0.001,0c0.001-0.001,0.002-0.001,0.003-0.001c0,0,0.001,0.001,0.001,0    c0.001,0,0.003,0,0.004,0l0,0c0.002,0,0.003,0,0.004-0.001c0.002,0,0.002,0,0.002,0c0.001,0,0.002,0,0.003,0s0.004,0,0.004,0    c0.001,0,0.001,0,0.001,0c0.002,0,0.003-0.002,0.004-0.002c0.003,0,0.004,0,0.005,0l0,0c0.001,0,0.003-0.001,0.005-0.001v0.001    c0.001-0.001,0.002-0.001,0.003-0.001h0.001c0.001,0,0.002,0,0.004,0c0,0,0,0,0.001-0.001c0.003,0,0.006,0,0.008,0    c0.001-0.001,0.001,0,0.001,0c0.001,0,0.002,0,0.003-0.001c0,0,0,0,0.002,0c0.001,0,0.002,0,0.003,0l0,0    c0.002-0.001,0.004-0.001,0.005,0c0.001-0.001,0.001-0.001,0.001-0.001c0.001,0,0.002,0,0.003,0c0.002,0,0.004,0,0.005,0    c0,0,0,0,0-0.001c0.003,0,0.006,0,0.009,0c0,0,0,0,0-0.001c0.001,0,0.003,0,0.005,0c0.001,0,0.002,0,0.005,0    c0.001,0,0.002-0.002,0.003-0.002h0.001c0.002,0,0.006,0,0.008,0c0,0,0.001-0.001,0.001,0c0.002-0.001,0.003-0.001,0.004-0.001    s0.003,0,0.004-0.001l0,0C71.063,57.873,71.064,57.873,71.065,57.873z M64.046,58.75H35.764c0.29-0.219,0.568-0.453,0.833-0.701    H63.22C63.483,58.295,63.755,58.532,64.046,58.75z M64.006,54.564c0.001,0.002,0.003,0.005,0.004,0.008l0,0    c0,0.001,0.002,0.002,0.003,0.004l0,0c0.002,0.002,0.003,0.004,0.004,0.006c0,0.002,0,0.002,0.002,0.002    c0,0.001,0.001,0.002,0.001,0.003l0,0c0.001,0.001,0.002,0.002,0.003,0.004c0,0.001,0.001,0.002,0.002,0.003    c-0.001,0.001,0,0.001,0,0.001c0.002,0.003,0.003,0.004,0.005,0.007l0,0c0.001,0.002,0.001,0.002,0.002,0.005h0.002    c0,0,0.001,0.001,0.001,0.002l0.001,0.001c0,0.001,0.001,0.003,0.001,0.004c0.001,0,0.001,0,0.001,0    c0.001,0.001,0.001,0.002,0.002,0.004c0,0.001,0.002,0.003,0.003,0.003v0.001c0.001,0.001,0.001,0.002,0.002,0.003l0,0    c0.001,0.001,0.002,0.003,0.002,0.004l0,0c0.002,0.001,0.002,0.002,0.003,0.003c0,0,0.001,0,0,0.001    c0.002,0.001,0.002,0.003,0.003,0.004l0,0c0,0.001,0.001,0.002,0.001,0.003c0.001,0,0.001,0,0.001,0    c0.002,0.001,0.002,0.003,0.003,0.004c0,0,0,0.001,0.001,0.001c0,0,0,0.001,0.001,0.002v0.001    c0.001,0.002,0.001,0.003,0.002,0.004l0,0c0.002,0.001,0.002,0.002,0.003,0.003c0,0,0.001,0,0.001,0.001c0,0,0,0.002,0.001,0.003    c0.001,0,0.001,0,0.001,0.001s0.001,0.002,0.003,0.002c0,0.001,0,0.001,0.001,0.001c0,0.002,0.001,0.003,0.001,0.003    s0,0.001,0.001,0.001c0,0.001,0.001,0.002,0.001,0.003h0.001c0,0.003,0.001,0.004,0.001,0.004c0.002,0,0.002,0.001,0.002,0.001    s0.001,0.001,0.001,0.002l0.001,0.001c0,0.002,0.001,0.003,0.001,0.003c0.001,0.001,0.001,0.001,0.001,0.002l0.001,0.001    c0.002,0.001,0.003,0.003,0.003,0.003c0,0.001,0.001,0.001,0.001,0.002c0,0,0,0,0.001,0.001s0.001,0.001,0.001,0.002    c0.001,0.001,0.001,0.001,0.001,0.003c0.001,0,0.001,0.001,0.001,0.001c0,0.001,0.002,0.001,0.002,0.001    c0.001,0.001,0.001,0.002,0.002,0.002c0,0.001,0,0.001,0.001,0.003c0,0,0,0.001,0.001,0.002c0,0,0,0.001,0.001,0.002    c0,0,0,0.001,0.002,0.001c0,0.001,0,0.001,0.001,0.001c0,0.002,0,0.002,0.001,0.003c0,0.001,0.001,0.001,0.002,0.002v0.001    c0.001,0.001,0.001,0.003,0.002,0.004c0,0,0,0.001,0.002,0.001c0,0,0,0.001,0.001,0.002l0,0c0.001,0.001,0.001,0.001,0.001,0.003    l-1.445,0.988c-0.531-0.776-0.938-1.628-1.211-2.527l1.677-0.507c0.2,0.667,0.495,1.301,0.871,1.882v0.001    C64.002,54.56,64.003,54.563,64.006,54.564z M59.979,49.781H39.832c-0.017-0.237-0.044-0.469-0.076-0.701h20.301    C60.023,49.314,59.997,49.548,59.979,49.781z M39.832,51.322h20.147c0.018,0.235,0.042,0.469,0.076,0.701h-20.3    C39.788,51.792,39.815,51.559,39.832,51.322z M39.413,53.565h20.991c0.073,0.236,0.156,0.47,0.245,0.7H39.167    C39.257,54.035,39.341,53.803,39.413,53.565z M60.405,47.539H39.413c-0.072-0.237-0.156-0.471-0.247-0.701h21.48    C60.559,47.066,60.479,47.301,60.405,47.539z M38.063,54.015l-1.62-0.665c0.208-0.508,0.361-1.043,0.453-1.6    c0-0.003,0.001-0.006,0.001-0.009c0.001-0.005,0.001-0.009,0.002-0.014c0-0.002,0.001-0.006,0.001-0.009l0,0    c0.001-0.002,0.001-0.006,0.001-0.008c0,0,0,0,0-0.001c0.001-0.003,0.001-0.006,0.003-0.009V51.7c0-0.002,0-0.005,0.001-0.008l0,0    c0.001-0.008,0.002-0.015,0.003-0.022l0,0c0-0.002,0-0.006,0.001-0.009c0-0.004,0.002-0.006,0.002-0.009l0,0    c0-0.002,0-0.003,0-0.004s0.001-0.001,0.001-0.001c0-0.001,0-0.002,0-0.003v-0.002c0-0.001,0-0.002,0.001-0.003v-0.001    c0.001-0.003,0.001-0.006,0.001-0.008l0,0c0.001-0.004,0.001-0.007,0.002-0.01c0,0,0,0,0-0.001s0-0.002,0-0.003s0-0.004,0-0.005    h0.001c0-0.001,0-0.003,0-0.004l0,0c0-0.003,0.002-0.003,0.002-0.005l0,0c0-0.001,0-0.002,0-0.005c0,0,0,0,0-0.001    s0-0.002,0.001-0.003c0-0.001,0-0.003,0-0.005l0,0c0.001-0.003,0.001-0.006,0.001-0.009l0,0c0-0.001,0.001-0.004,0.001-0.005l0,0    c0-0.001,0-0.002,0-0.003s0-0.001,0-0.001c0.001-0.002,0.001-0.003,0.001-0.004s0-0.001,0-0.001c0-0.001,0-0.002,0.001-0.004    v-0.001c0-0.001,0-0.002,0-0.003s0-0.001,0-0.001c0-0.001,0-0.004,0-0.005c0.002-0.001,0.002-0.002,0.002-0.003v-0.002    c0.001-0.003,0.001-0.004,0.001-0.008V51.54c0-0.001,0-0.002,0.001-0.003c0-0.001,0-0.001,0-0.001c0-0.002,0-0.003,0-0.004l0,0    c0-0.002,0-0.003,0.001-0.005c0,0,0,0,0-0.001s0-0.002,0-0.003l0,0c0-0.002,0-0.004,0-0.005l0.001-0.001c0-0.001,0-0.002,0-0.003    l0,0c0-0.002,0-0.004,0.001-0.005c0,0,0,0,0-0.001s0-0.002,0-0.004l0,0c0.001-0.001,0.001-0.002,0.001-0.004l0,0    c0-0.003,0-0.004,0.002-0.005l0,0c0-0.001,0-0.003,0-0.004l0,0c0-0.003,0-0.003,0.001-0.005l0,0c0-0.001,0-0.004,0-0.005l0,0    c0-0.001,0-0.002,0-0.004c0.001,0,0.001,0,0.001-0.002c0-0.001,0-0.002,0-0.003l0,0c0-0.001,0-0.002,0-0.003    c0.001-0.002,0.001-0.002,0.001-0.002c0-0.001,0-0.003,0-0.003c0-0.001,0-0.001,0-0.001c0-0.001,0-0.003,0-0.004s0-0.001,0-0.001    c0.001-0.001,0.001-0.003,0.001-0.004l0,0c0-0.002,0-0.003,0-0.004v-0.001c0.001-0.001,0.001-0.004,0.001-0.005l0,0    c0-0.001,0-0.002,0-0.003c0,0,0,0,0-0.001c0-0.002,0-0.003,0.002-0.004c0-0.001,0-0.001,0-0.002c0,0,0-0.001,0-0.002v-0.002    c0-0.001,0-0.002,0-0.003s0-0.001,0-0.001c0.001-0.001,0.001-0.003,0.001-0.004v-0.001c0-0.001,0.001-0.002,0.001-0.003V51.42    c0-0.002,0-0.003,0-0.004v-0.001c0-0.001,0.001-0.002,0.001-0.004V51.41c0-0.001,0-0.002,0-0.003v-0.001c0-0.002,0-0.003,0-0.004    c0,0,0,0,0.001-0.001c0-0.001,0-0.002,0-0.003c0-0.002,0-0.002,0-0.003c0,0,0-0.001,0-0.002c0,0,0,0,0-0.001    c0.001-0.001,0.001-0.003,0.001-0.004v-0.001c0-0.001,0-0.002,0-0.003v-0.001c0-0.002,0-0.003,0.002-0.004v-0.001    c0-0.001,0-0.002,0-0.004c0-0.001,0-0.001,0-0.001c0-0.001,0-0.002,0-0.003c0,0,0.001,0,0.001-0.001s0-0.003,0-0.004v-0.001    c0-0.001,0-0.002,0-0.002c0-0.001,0-0.001,0-0.003c0-0.001,0.001-0.002,0.001-0.003v-0.001c0.001-0.001,0.001-0.003,0.001-0.003    c0-0.001,0-0.001,0-0.002s0-0.002,0-0.003v-0.001c0-0.002,0-0.002,0-0.003s0-0.002,0.001-0.002c0-0.001,0-0.002,0-0.002    c0-0.002,0-0.003,0-0.003c0-0.001,0-0.002,0-0.002c0-0.001,0-0.002,0-0.003c0.001,0,0.001-0.002,0.001-0.003v-0.001    c0-0.001,0-0.002,0-0.003v-0.002c0-0.001,0-0.002,0-0.002c0-0.001,0-0.001,0-0.002c0.001-0.001,0.001-0.003,0.001-0.004v-0.001    c0-0.001,0-0.002,0-0.002c0-0.001,0-0.001,0-0.002c0-0.002,0.002-0.003,0.002-0.003c0-0.001,0-0.002,0-0.002    c0-0.001,0-0.001,0-0.002c0-0.002,0-0.003,0-0.003c0-0.001,0-0.002,0-0.002c0-0.001,0-0.002,0-0.002    c0-0.001,0.001-0.001,0.001-0.003c0-0.001,0-0.002,0-0.003v-0.001c0-0.001,0-0.003,0-0.003c0-0.001,0-0.001,0-0.002    c0.001-0.001,0.001-0.001,0.001-0.002s0-0.001,0-0.003c0-0.001,0-0.001,0-0.002s0-0.002,0-0.003c0,0,0-0.001,0-0.003    c0,0,0,0,0-0.001c0.001-0.001,0.001-0.002,0.001-0.003v-0.001c0-0.002,0-0.003,0-0.003c0-0.001,0-0.001,0-0.002    s0-0.002,0.001-0.003c0,0,0-0.002,0-0.003v-0.001c0-0.001,0-0.001,0-0.002s0-0.003,0-0.004s0-0.001,0-0.001    c0-0.001,0-0.001,0-0.002l0.001-0.001c0-0.003,0-0.004,0-0.005c0,0,0,0,0-0.001c0.002-0.002,0.002-0.006,0.002-0.008v-0.001    c0-0.003,0.001-0.006,0.001-0.008c0,0,0,0,0-0.002c0-0.001,0-0.003,0-0.004l0,0c0-0.001,0-0.003,0-0.004l0,0    c0-0.002,0.001-0.003,0.001-0.005l0,0c0-0.003,0-0.006,0-0.009c0.001-0.001,0.001-0.001,0.001-0.001c0-0.003,0-0.006,0-0.008    v-0.001c0-0.002,0-0.006,0.001-0.008l0,0c0-0.006,0-0.01,0.001-0.015c0.001-0.008,0.001-0.017,0.003-0.025l1.745,0.14    C38.639,52.225,38.42,53.145,38.063,54.015z M38.412,55.808h22.991c0.144,0.239,0.295,0.473,0.457,0.701H37.95    C38.113,56.28,38.268,56.048,38.412,55.808z M63.104,48.513L63.104,48.513c0,0.001,0,0.002,0,0.003c-0.001,0-0.001,0-0.001,0    c0,0.001,0,0.001,0,0.002v0.001c-0.001,0.001-0.001,0.001-0.001,0.002c0,0,0,0,0,0.001c0,0,0,0.001-0.001,0.001    c0,0.001,0,0.001,0,0.002v0.001c0,0,0,0.001-0.001,0.001c0,0.001,0,0.001,0,0.002c0,0,0,0,0,0.001L63.1,48.533    c0,0.001,0,0.001,0,0.001c0,0.001,0,0.001,0,0.002l-0.002,0.001c0,0.001,0,0.001,0,0.002c0,0-0.001,0-0.001,0.001v0.001v0.001    c0,0.001-0.001,0.001-0.001,0.002c0,0,0,0,0,0.001v0.001l-0.001,0.001c0,0.001-0.001,0.001-0.001,0.002v0.001    c0,0.001,0,0.001,0,0.001c0,0.001-0.001,0.001-0.001,0.001c0,0.001,0,0.001,0,0.002s0,0.001,0,0.001    c-0.002,0.001-0.002,0.001-0.002,0.002c0,0,0,0,0,0.001c0,0,0,0.001-0.001,0.001c0,0.001,0,0.001,0,0.001s0,0.001,0,0.002    c0,0,0,0.001-0.001,0.001v0.001c0,0.001,0,0.001,0,0.002c0,0-0.001,0.001-0.001,0.002c0,0.001,0,0.002-0.001,0.003v0.001    c0,0.001,0,0.001,0,0.002c-0.001,0-0.001,0.001-0.001,0.001c0,0.001,0,0.002,0,0.002c0,0.001,0,0.001-0.001,0.001    c0,0.001,0,0.002,0,0.003c0,0,0,0,0,0.001c-0.002,0.001-0.002,0.001-0.002,0.002v0.001c0,0-0.001,0.001-0.001,0.002    c0,0.001,0,0.001,0,0.001l-0.001,0.002v0.001c0,0.001-0.001,0.002-0.001,0.003l0,0c0,0.001,0,0.002-0.001,0.002    c0,0.001,0,0.001,0,0.002c0,0,0,0.001,0,0.002c0,0,0,0,0,0.001c-0.001,0.001-0.001,0.001-0.001,0.002c0,0,0,0,0,0.001    c0,0-0.002,0.002-0.002,0.003c-0.001,0-0.001,0-0.001,0c0,0.001,0,0.002,0,0.003c0,0,0,0-0.001,0c0,0.001,0,0.002,0,0.002    c0,0.001,0,0.002,0,0.002c-0.001,0-0.001,0.001-0.001,0.002l0,0c0,0.001-0.001,0.002-0.001,0.003c0,0.001,0,0.001,0,0.001    c0,0.001-0.001,0.002-0.001,0.002c0,0.001,0,0.001,0,0.001c0,0.001,0,0.002-0.002,0.002c0,0.001,0,0.001,0,0.001    c0,0.002-0.001,0.004-0.001,0.006l-0.001,0.001c0,0.001,0,0.001,0,0.002v0.001c-0.001,0.001-0.001,0.002-0.001,0.002v0.001    c-0.001,0.001-0.001,0.002-0.001,0.003c0,0,0,0,0,0.001s-0.001,0.001-0.001,0.002v0.001c0,0.001,0,0.001-0.001,0.002v0.001    c0,0.001,0,0.001,0,0.002v0.001c0,0.001-0.002,0.002-0.002,0.003c0,0,0,0,0,0.001c0,0-0.001,0.001-0.001,0.002c0,0,0,0,0,0.001    c0,0.001,0,0.001-0.001,0.002c0,0,0,0,0,0.001c0,0.001,0,0.001-0.001,0.002v0.001c0,0.001-0.001,0.002-0.001,0.003l0,0    c0,0.001,0,0.002-0.001,0.003c0,0,0,0,0,0.001v0.001c0,0.001,0,0.001-0.002,0.002c0,0.001,0,0.001,0,0.002c0,0,0,0,0,0.001    c-0.001,0-0.001,0.002-0.001,0.002c0,0.001,0,0.001,0,0.001c-0.001,0.001-0.001,0.002-0.001,0.002c0,0.001,0,0.001,0,0.001    c0,0.001-0.001,0.002-0.001,0.002c0.001,0.001,0,0.001,0,0.002c0,0.002-0.001,0.003-0.001,0.005c0,0.001,0,0.001,0,0.001    c-0.001,0.001-0.001,0.002-0.001,0.002c0,0.001,0,0.001,0,0.001c0,0.001-0.001,0.002-0.001,0.002c0,0.001,0,0.001,0,0.001    c0,0.001-0.002,0.002-0.002,0.003c0,0,0,0,0,0.001c0,0,0,0.001-0.001,0.002v0.001c0,0.001,0,0.002,0,0.002    c0,0.001,0,0.001,0,0.001c-0.001,0.001-0.001,0.002-0.001,0.002c0,0.001,0,0.001,0,0.001c0,0.001-0.001,0.002-0.001,0.003    c0,0,0,0,0,0.001c0,0,0,0.001-0.001,0.002v0.001c-0.001,0.001-0.001,0.001-0.001,0.002v0.001c0,0.001-0.002,0.002-0.002,0.003    c0,0.001,0,0.002-0.001,0.003l0,0c0,0.001,0,0.002,0,0.003c-0.001,0-0.001,0-0.001,0.001v0.002c0,0,0,0,0,0.001    c-0.001,0.002-0.001,0.003-0.002,0.007l0,0c0,0.001,0,0.002,0,0.003l-0.001,0.001c0,0,0,0.001,0,0.002l0,0    c-0.001,0.003-0.001,0.004-0.003,0.008l0,0c0,0.001,0,0.002-0.001,0.003l0,0c0,0.001,0,0.002,0,0.002c0,0.001,0,0.001,0,0.001    c-0.001,0.001-0.001,0.002-0.001,0.003v0.001c-0.001,0.001-0.001,0.001-0.001,0.002v0.001c0,0.001-0.001,0.002-0.001,0.002v0.001    c0,0.001,0,0.001-0.001,0.002c0,0.001,0,0.001,0,0.001c0,0.001,0,0.003,0,0.003v0.001c-0.002,0.001-0.002,0.001-0.002,0.002    c0,0,0,0,0,0.001s-0.001,0.001-0.001,0.002v0.001c0,0.001-0.001,0.002-0.001,0.003l0,0c0,0.001-0.001,0.002-0.001,0.003    c0,0.001,0,0.002,0,0.003v0.001c-0.001,0.001-0.001,0.001-0.001,0.002c0,0.001,0,0.001,0,0.001c0,0.001-0.001,0.002-0.001,0.003    l0,0c0,0.001,0,0.002-0.002,0.003l0,0c0,0.001,0,0.002,0,0.003c0,0,0,0-0.001,0c0,0.001,0,0.002,0,0.003v0.001    c-0.001,0.002-0.001,0.004-0.002,0.007c0,0,0,0,0,0.001c0,0,0,0.001-0.001,0.002l0,0c0.001,0.001,0,0.002,0,0.003l0,0    c0,0.002-0.001,0.003-0.001,0.004l0,0c0,0.001,0,0.002-0.001,0.002c0,0.001,0,0.001,0,0.001c0,0.001,0,0.002,0,0.003l0,0    c-0.002,0.001-0.002,0.003-0.002,0.003c-0.001,0.001-0.001,0.002-0.001,0.004c0,0,0,0.002-0.001,0.002v0.001    c0,0.001,0,0.001,0,0.002c-0.001,0.001-0.001,0.001,0,0.001c-0.001,0.003-0.001,0.004-0.002,0.007v0.001    c-0.001,0-0.001,0.001-0.001,0.002l0,0c0,0.002-0.002,0.003-0.002,0.003V48.9c0,0.002,0,0.004-0.001,0.007l0,0    c0,0.001-0.001,0.002-0.001,0.003c0,0,0,0,0,0.001s0,0.002,0,0.002c0,0.001,0,0.001,0,0.001C63.001,48.917,63,48.919,63,48.921    l0,0c0,0.001,0,0.002-0.001,0.003v0.001c0,0,0,0.001-0.001,0.002c0,0,0,0,0.001,0.001c-0.001,0.002-0.001,0.004-0.003,0.007l0,0    c0,0.001,0,0.002,0,0.003l0,0c-0.001,0.003-0.002,0.008-0.003,0.011l0,0c0,0.001,0,0.002,0,0.003l0,0    c-0.001,0.003-0.002,0.007-0.002,0.01c0,0,0,0-0.002,0.001c0,0.001,0,0.002,0,0.003l0,0c0,0.002-0.002,0.004-0.002,0.007    c0,0.001,0,0.002-0.001,0.003v0.001c0,0.001,0,0.002,0,0.003l0,0c-0.001,0.002-0.002,0.004-0.002,0.007c0,0,0,0,0,0.001    c0,0,0,0.001,0,0.002c0,0,0,0,0,0.001c-0.002,0.003-0.003,0.007-0.004,0.01c0,0.001,0,0.002,0,0.003l0,0    c-0.001,0.004-0.001,0.008-0.002,0.011l0,0c0,0.001,0,0.002-0.001,0.003l0,0c0,0.004-0.001,0.007-0.003,0.011l0,0    c0,0.001,0,0.002,0,0.003c0,0,0,0-0.001,0c0,0.002,0,0.005-0.001,0.008c0,0.001,0,0.002,0,0.003l0,0    c-0.001,0.001-0.001,0.002-0.001,0.003c0,0.002-0.002,0.004-0.002,0.007c0,0.002,0,0.003-0.002,0.003    c0,0.004-0.001,0.008-0.001,0.011c-0.001,0.005-0.002,0.01-0.003,0.015l0,0c-0.001,0.004-0.002,0.01-0.002,0.015    c-0.005,0.018-0.009,0.036-0.012,0.054c-0.037,0.194-0.066,0.388-0.089,0.582c0,0.003,0,0.008-0.002,0.011l0,0    c0,0.001,0,0.002,0,0.003c0,0.003-0.001,0.007-0.001,0.011c-0.001,0.004-0.001,0.009-0.002,0.014c0,0.005-0.001,0.01-0.001,0.015    v0.001c0,0.003-0.001,0.005-0.001,0.01l0,0c0,0.001,0,0.002,0,0.003l0,0c0,0.003-0.001,0.008-0.001,0.011l0,0    c0,0.001,0,0.002,0,0.003l0,0c-0.002,0.002-0.002,0.004-0.002,0.007c0,0,0,0,0,0.001c0,0,0,0.001,0,0.002l-0.001,0.001    c0.001,0.001,0.001,0.001,0,0.003l0,0c0,0.002,0,0.004,0,0.007v0.001c0,0-0.001,0.001-0.001,0.002    c0.001,0.001,0.001,0.001,0,0.001c0,0.001,0,0.001,0,0.002v0.001c0,0.002,0,0.004-0.001,0.007l0,0c0,0.002,0,0.002,0,0.003v0.001    c0,0.001-0.001,0.001-0.001,0.002c0,0,0,0.001,0.001,0.001c-0.001,0.002-0.001,0.004-0.001,0.007c0,0,0,0,0,0.001    c0,0,0,0.001,0,0.002l0,0c0,0.001,0,0.002,0,0.003l0,0c0,0.001-0.001,0.003-0.001,0.003s0.001,0,0.001,0.001    c-0.001,0-0.001,0.002-0.001,0.002c-0.002,0.001,0,0.001,0,0.002c0,0,0,0.001-0.002,0.001c0,0.001,0,0.001,0,0.002v0.001    c0,0.001,0,0.001,0,0.001c0,0.001,0,0.002,0,0.003v0.001c0,0.001-0.001,0.002,0,0.002c0,0,0,0.001-0.001,0.001    c0,0.001,0,0.001,0,0.002v0.001c0,0.001,0,0.001,0,0.002c0,0.001,0,0.001,0,0.002c0,0,0,0.001,0,0.002c0,0,0,0.001,0,0.002    c0,0,0,0-0.001,0.001v0.001c0,0.001,0,0.001,0,0.002v0.001c0,0.001,0,0.001,0,0.002c0,0,0,0.001,0,0.002s0,0.001,0,0.002    c0,0,0,0.001-0.001,0.001c0,0,0,0.001,0.001,0.001c-0.001,0.001-0.001,0.002-0.001,0.002c0,0.001,0,0.001,0,0.001    c0,0.001,0,0.001,0,0.002v0.001c0,0.001,0,0.002,0,0.003c-0.001,0.001-0.001,0.001,0,0.002c0,0-0.001,0.001,0,0.001l-0.001,0.001    c0,0.001,0,0.001,0,0.002v0.001c0,0.002,0,0.005,0,0.007v0.001c0,0-0.001,0.001,0,0.002c0,0,0,0,0,0.001    c-0.001,0-0.001,0.001-0.001,0.002l0,0c0,0.003,0,0.006,0,0.008v0.001c0,0-0.001,0.001-0.001,0.002l0,0    c0,0.001,0.001,0.002,0,0.003l0,0c0,0.002,0,0.006,0,0.008l0,0c-0.002,0.001-0.002,0.002-0.002,0.002    c0.002,0.001,0.002,0.001,0.002,0.001c-0.002,0.003-0.002,0.007-0.002,0.011l0,0c0,0.001-0.001,0.002,0,0.002v0.001    c-0.011,0.143-0.018,0.286-0.02,0.428l-1.751-0.031c0.012-0.773,0.126-1.545,0.335-2.296c0.043-0.157,0.092-0.314,0.144-0.467    l1.659,0.56C63.169,48.299,63.137,48.405,63.104,48.513z M61.4,45.296H38.412c-0.145-0.24-0.298-0.474-0.462-0.701h23.908    C61.696,44.822,61.544,45.055,61.4,45.296z M37.457,45.882c0.485,0.811,0.839,1.688,1.05,2.605l-1.705,0.395    c-0.055-0.237-0.121-0.47-0.198-0.698c-0.001-0.002-0.002-0.005-0.003-0.008c-0.001-0.003-0.001-0.005-0.002-0.009    c-0.002-0.001-0.002-0.002-0.003-0.004c-0.001-0.003-0.001-0.006-0.003-0.008v-0.001c0-0.002-0.001-0.004-0.003-0.007v-0.001    c-0.001-0.004-0.002-0.008-0.004-0.013l0,0c-0.001-0.003-0.001-0.005-0.003-0.008v-0.001c-0.001-0.002-0.002-0.004-0.003-0.007    v-0.001c0-0.001-0.001-0.002-0.001-0.005l0,0c-0.002-0.003-0.002-0.005-0.004-0.008c0,0,0,0,0-0.001    c-0.001-0.002-0.002-0.004-0.003-0.007c0,0,0,0,0-0.001c0-0.001-0.001-0.002-0.001-0.003s0-0.001,0-0.001    c0-0.001-0.001-0.002-0.001-0.002c0-0.001,0-0.001,0-0.001c-0.002-0.001-0.002-0.002-0.002-0.003    c-0.001-0.001-0.001-0.001-0.001-0.002c0,0,0-0.001-0.001-0.001c0-0.001,0-0.001,0-0.001c0-0.001,0-0.002-0.001-0.003    c0-0.001,0-0.001,0-0.002c-0.001-0.001-0.001-0.002-0.001-0.003s0-0.001-0.001-0.001c0-0.001,0-0.001,0-0.002l-0.002-0.001    c0-0.001-0.001-0.002-0.001-0.003v-0.001c0-0.001-0.001-0.001-0.001-0.002l-0.001-0.001c0-0.001,0-0.002-0.001-0.003    c0-0.001,0-0.001,0-0.001c0-0.002-0.001-0.003-0.001-0.004c-0.001,0-0.001,0-0.001-0.001c0-0.001,0-0.001,0-0.002    c-0.002,0-0.002,0-0.002-0.001c0-0.001-0.001-0.002-0.001-0.002c0-0.001,0-0.001,0-0.002c0,0-0.001-0.001-0.001-0.002v-0.001    c-0.001-0.001-0.001-0.002-0.001-0.003l-0.001-0.001c0-0.001,0-0.001,0-0.002c-0.001-0.001-0.001-0.002-0.001-0.003l-0.002-0.001    v-0.001c-0.001-0.001-0.001-0.002-0.001-0.002c0-0.001,0-0.002-0.001-0.003v-0.001c-0.001-0.001-0.001-0.001-0.001-0.002    c0-0.001,0-0.001-0.001-0.002c0-0.001,0-0.001-0.001-0.002c0,0,0-0.001-0.001-0.002c0,0,0-0.001,0-0.002l-0.002-0.001    c0-0.001,0-0.002-0.001-0.002c0-0.001,0-0.001,0-0.002c0-0.001-0.001-0.001-0.001-0.002s0-0.001-0.001-0.002c0,0,0-0.001,0-0.002    c-0.001,0-0.001-0.001-0.001-0.001c0-0.001,0-0.002-0.001-0.003v-0.001c0-0.001-0.002-0.001-0.002-0.002c0-0.001,0-0.001,0-0.002    c-0.001-0.001-0.001-0.001-0.001-0.002l-0.001-0.001c0-0.001,0-0.002-0.001-0.003v-0.001c0-0.001-0.001-0.001-0.001-0.002v-0.001    c0-0.001-0.001-0.002-0.001-0.003s-0.001-0.001-0.001-0.002c0,0,0-0.001,0-0.002l-0.002-0.001c0-0.001-0.001-0.002-0.001-0.002    c-0.001-0.001-0.001-0.001-0.001-0.002s0-0.001-0.001-0.002c0-0.001,0-0.001,0-0.002c-0.001,0-0.001-0.001-0.001-0.001    c0-0.001,0-0.002,0-0.002c-0.001-0.001-0.001-0.002-0.001-0.003c-0.002,0-0.002-0.001-0.002-0.001c0-0.001,0-0.001-0.001-0.002    v-0.001c-0.001-0.001-0.001-0.002-0.001-0.003l-0.001-0.001c0-0.001,0-0.002-0.001-0.002c0-0.001,0-0.001,0-0.002l-0.001-0.002    c0-0.001,0-0.001,0-0.002c-0.002-0.001-0.002-0.001-0.002-0.002c0-0.001-0.001-0.001-0.001-0.001c0-0.001,0-0.002-0.001-0.003    c0,0,0,0,0-0.001c0-0.001-0.001-0.002-0.001-0.002c0-0.001,0-0.001,0-0.002c-0.001,0-0.001-0.001-0.001-0.002    c0,0,0-0.001-0.001-0.001c-0.001-0.001-0.001-0.002-0.001-0.003c0,0,0-0.001-0.002-0.001c0-0.001,0-0.002-0.001-0.003v-0.001    c0-0.001,0-0.001-0.001-0.002v-0.001C36.5,47.901,36.5,47.9,36.5,47.898c0-0.001,0-0.001-0.001-0.001c0-0.001,0-0.002-0.001-0.002    c0-0.001,0-0.001,0-0.001c-0.002-0.001-0.002-0.002-0.002-0.003s0-0.001-0.001-0.001c0-0.001,0-0.002-0.001-0.003c0,0,0,0,0-0.001    c0-0.001-0.001-0.002-0.001-0.002c0-0.001-0.001-0.001-0.001-0.001c0-0.002,0-0.003,0-0.005h-0.001c0-0.001,0-0.002-0.001-0.003    c0,0,0,0,0-0.001s-0.002-0.002-0.002-0.003v-0.001c-0.001-0.001-0.002-0.001-0.002-0.002v-0.001    c-0.001-0.001-0.001-0.002-0.001-0.003l-0.001-0.001c0-0.001,0-0.002-0.001-0.003l0,0c0-0.001-0.002-0.002-0.002-0.003    c0-0.001,0-0.001,0-0.001c-0.001-0.001-0.001-0.002-0.001-0.003l-0.001-0.001c0-0.001,0-0.002-0.001-0.003l0,0    c-0.001-0.001-0.001-0.002-0.002-0.003c0-0.001,0-0.001,0-0.001c0-0.001,0-0.002-0.001-0.003c0-0.001-0.002-0.003-0.002-0.003    c0-0.001,0-0.001,0-0.001c-0.001-0.002-0.001-0.003-0.002-0.004c0,0,0,0-0.001,0c0-0.001,0-0.002,0-0.003    c-0.001,0-0.001,0-0.001-0.001c0-0.001-0.001-0.002-0.001-0.003c0,0,0,0,0-0.001c-0.002,0-0.002-0.001-0.002-0.002    c-0.001,0-0.001-0.001-0.001-0.001c0-0.001,0-0.002-0.001-0.003c0,0,0,0,0-0.001c-0.001-0.002-0.002-0.004-0.003-0.007v-0.001    c0-0.001-0.002-0.002-0.002-0.003c0,0,0,0,0-0.001c-0.001,0-0.001-0.001-0.002-0.002c0-0.001,0-0.001,0-0.001    c0-0.001,0-0.002-0.001-0.003c0-0.001,0-0.001,0-0.001c-0.001-0.001-0.001-0.002-0.001-0.003    c-0.001-0.001-0.001-0.003-0.002-0.004l0,0c-0.002-0.002-0.003-0.004-0.004-0.008l0,0c-0.001-0.001-0.001-0.002-0.002-0.004    c0-0.001-0.001-0.002-0.001-0.003c-0.002-0.002-0.002-0.003-0.002-0.005c0,0,0,0-0.001,0c0-0.002-0.001-0.005-0.002-0.008    c0,0,0,0,0-0.001c-0.001,0-0.001-0.002-0.002-0.003c0-0.001-0.002-0.003-0.002-0.004l0,0c-0.001-0.001-0.001-0.002-0.002-0.003    l0,0c-0.001-0.003-0.002-0.006-0.003-0.008l0,0c-0.001-0.003-0.003-0.007-0.004-0.009l0,0c-0.001-0.001-0.001-0.003-0.002-0.004    c0-0.001,0-0.002-0.001-0.003c0-0.001-0.001-0.002-0.001-0.004c-0.002-0.002-0.003-0.006-0.004-0.008    c-0.002-0.003-0.002-0.006-0.004-0.008c-0.006-0.013-0.012-0.027-0.018-0.041c-0.003-0.01-0.008-0.019-0.013-0.029    c-0.065-0.151-0.136-0.3-0.212-0.447c-0.002-0.007-0.006-0.013-0.01-0.02c-0.001-0.003-0.003-0.005-0.004-0.008l0,0    c0-0.001-0.001-0.002-0.002-0.003c-0.001-0.003-0.002-0.005-0.003-0.008c0-0.001,0-0.001,0-0.001    c-0.003-0.002-0.004-0.005-0.005-0.007c-0.002-0.004-0.005-0.009-0.007-0.013c-0.001-0.002-0.002-0.004-0.004-0.007v-0.001    c-0.001-0.002-0.003-0.004-0.004-0.008c0-0.001-0.001-0.002-0.002-0.003c-0.002-0.002-0.003-0.006-0.005-0.008l0,0    c-0.001-0.002-0.002-0.004-0.004-0.008l0,0c-0.001-0.001-0.001-0.003-0.002-0.005c0,0-0.001-0.001-0.001-0.002    c0-0.001,0-0.001,0-0.001c-0.001-0.001-0.002-0.002-0.002-0.003l0,0c-0.001-0.001-0.001-0.003-0.003-0.005    c-0.001-0.001-0.001-0.001-0.002-0.003l0,0c-0.002-0.003-0.003-0.005-0.005-0.008l0,0c-0.001-0.001-0.001-0.002-0.002-0.003    c0,0,0,0,0-0.001c-0.001-0.001-0.001-0.001-0.002-0.002c0-0.001,0-0.001,0-0.001c0-0.001-0.001-0.002-0.001-0.003l0,0    c-0.003-0.003-0.004-0.006-0.005-0.008c0,0,0,0,0-0.001c-0.001-0.002-0.002-0.003-0.005-0.007l0,0    c-0.001-0.001-0.001-0.002-0.002-0.003c0,0,0,0,0-0.001l-0.001-0.002c-0.001-0.001-0.001-0.001-0.001-0.001    c0-0.001-0.001-0.002-0.003-0.003c0,0,0,0,0-0.001c0-0.001-0.001-0.001-0.001-0.002c0-0.001,0-0.001-0.001-0.001    c0-0.001,0-0.002-0.001-0.003l0,0c-0.001-0.001-0.001-0.002-0.002-0.003c0,0,0,0,0-0.001s-0.001-0.002-0.001-0.002    c-0.002-0.001-0.002-0.001-0.002-0.001c0-0.001-0.001-0.002-0.001-0.003L36.081,47c-0.001-0.001-0.001-0.002-0.002-0.003l0,0    c0-0.001-0.001-0.002-0.001-0.003c0,0-0.002,0-0.002-0.001c0,0-0.001-0.001-0.001-0.002v-0.001    c-0.001-0.001-0.002-0.002-0.002-0.002c0-0.001,0-0.001-0.001-0.001c0-0.002-0.001-0.002-0.001-0.003v-0.001    c-0.001-0.001-0.001-0.002-0.003-0.002c0-0.001,0-0.001,0-0.001c-0.001-0.001-0.001-0.002-0.002-0.003c0,0,0,0,0-0.001    c0,0-0.002-0.001-0.002-0.002s0-0.001-0.001-0.001c0-0.001,0-0.002-0.002-0.002c0-0.001,0-0.001,0-0.001    c-0.001-0.002-0.001-0.002-0.002-0.003c0-0.001,0-0.001,0-0.001c0-0.001-0.001-0.002-0.001-0.002c0-0.001-0.001-0.001-0.001-0.001    c0-0.001-0.001-0.002-0.001-0.003c0,0-0.002,0-0.002-0.001c-0.001,0-0.001-0.001-0.001-0.002c0,0,0-0.001-0.001-0.001    c0-0.001-0.001-0.001-0.001-0.002c0-0.001,0-0.001-0.001-0.001c0-0.001,0-0.002-0.001-0.003v-0.001    c-0.001-0.001-0.001-0.002-0.003-0.002c0-0.001-0.001-0.001-0.001-0.001c0-0.001-0.001-0.002-0.001-0.003    s-0.001-0.001-0.001-0.001c0-0.001,0-0.001-0.001-0.002v-0.001c-0.001-0.001-0.001-0.002-0.003-0.002c0-0.001,0-0.001,0-0.001    c-0.001-0.001-0.001-0.002-0.001-0.002c-0.001-0.001-0.001-0.002-0.001-0.003c-0.001,0-0.001-0.001-0.001-0.001    c0-0.001-0.001-0.001-0.001-0.001c-0.001-0.001-0.001-0.002-0.001-0.002c-0.001-0.001-0.001-0.002-0.001-0.002    c-0.002-0.001-0.002-0.001-0.002-0.002l-0.001-0.001c0-0.001-0.001-0.001-0.001-0.002s-0.001-0.001-0.002-0.002v-0.001    c-0.001-0.001-0.001-0.002-0.003-0.003v-0.001c-0.001,0-0.001-0.001-0.001-0.002l-0.001-0.001c0-0.001-0.001-0.002-0.001-0.002    c0-0.001-0.001-0.001-0.001-0.002c0,0,0-0.001-0.001-0.001c0,0,0-0.001-0.002-0.002c0-0.001,0-0.001-0.001-0.002v-0.001    c-0.001-0.001-0.001-0.002-0.002-0.002c0-0.001-0.001-0.002-0.001-0.002c0-0.001,0-0.001-0.001-0.002v-0.001    c-0.001-0.001-0.001-0.002-0.003-0.003c0,0,0,0-0.001,0c0-0.001-0.001-0.002-0.001-0.002c0-0.001,0-0.001,0-0.001    c-0.001-0.001-0.002-0.002-0.002-0.003v-0.001c-0.003-0.002-0.004-0.004-0.005-0.006c0,0,0,0,0-0.001    c-0.001-0.002-0.002-0.003-0.003-0.007l0,0c-0.001-0.001-0.003-0.002-0.004-0.004l0,0c-0.001-0.002-0.002-0.004-0.004-0.007l0,0    c-0.002-0.002-0.003-0.005-0.005-0.008c-0.01-0.018-0.021-0.036-0.031-0.054L37.457,45.882z M36.608,56.416    c-0.605,0.721-1.315,1.342-2.11,1.846l-0.937-1.479c0.587-0.372,1.119-0.826,1.578-1.344c0.002-0.003,0.005-0.005,0.006-0.008l0,0    c0.002-0.002,0.004-0.004,0.007-0.006c0,0,0,0,0-0.001c0.001,0,0.001-0.001,0.002-0.003l0,0c0.002-0.002,0.005-0.004,0.006-0.007    l0,0c0.001-0.001,0.002-0.002,0.003-0.003l0,0c0.001-0.001,0.003-0.002,0.004-0.004c0-0.001,0.001-0.002,0.002-0.003h0.001    c0.001-0.002,0.003-0.005,0.005-0.007l0,0c0.001-0.001,0.002-0.002,0.003-0.003l0,0c0.001-0.002,0.001-0.003,0.004-0.004l0,0    c0.001-0.001,0.001-0.002,0.002-0.003c0,0,0,0,0.001,0c0-0.001,0.001-0.003,0.003-0.004c0-0.001,0.002-0.002,0.002-0.002    c0-0.001,0-0.001,0.001-0.001c0-0.001,0.001-0.003,0.002-0.004l0,0c0.002-0.001,0.002-0.002,0.003-0.002v-0.001    c0.001-0.001,0.002-0.003,0.002-0.003c0.001-0.001,0.001-0.001,0.002-0.001c0-0.001,0.001-0.002,0.003-0.003l0,0    c0.001-0.001,0.001-0.001,0.002-0.002v-0.002c0.001-0.001,0.002-0.002,0.002-0.002c0.001-0.001,0.001-0.001,0.001-0.001    c0.002-0.001,0.002-0.001,0.003-0.002c0,0,0,0,0.001-0.002c0,0,0.001-0.001,0.001-0.002c0.001-0.001,0.001-0.001,0.001-0.001    c0.001-0.001,0.002-0.001,0.002-0.003c0,0,0,0,0.002,0c0.001-0.002,0.001-0.002,0.002-0.003c0,0,0-0.001,0.001-0.001    c0-0.001,0.001-0.001,0.001-0.002c0.001-0.001,0.001-0.001,0.001-0.001c0-0.002,0.002-0.003,0.002-0.003l0.001-0.001    c0.001-0.001,0.002-0.001,0.003-0.002v-0.001c0.001-0.001,0.001-0.003,0.002-0.003c0-0.001,0.002-0.001,0.002-0.001    c0-0.001,0.001-0.001,0.001-0.002l0.001-0.001c0-0.001,0.002-0.001,0.002-0.003c0.001-0.001,0.001-0.001,0.001-0.001    c0-0.001,0.002-0.001,0.003-0.002c0,0,0-0.001,0.001-0.001c0-0.001,0.001-0.001,0.001-0.003c0,0,0.001,0,0.001-0.001    c0.001-0.001,0.001-0.001,0.001-0.002c0.002-0.001,0.002-0.001,0.003-0.001c0-0.001,0.001-0.001,0.001-0.002c0,0,0,0,0.001-0.002    c0-0.001,0.001-0.001,0.001-0.002c0.001,0,0.001-0.001,0.001-0.002c0.001,0,0.001,0,0.001-0.001c0.003,0,0.003-0.002,0.004-0.003    c0,0,0,0,0.001-0.001l0.001-0.001c0-0.001,0.001-0.001,0.001-0.002c0.002,0,0.002-0.001,0.002-0.003c0.001,0,0.001,0,0.001-0.001    c0.001,0,0.002-0.001,0.002-0.002c0.001,0,0.001,0,0.001-0.001c0,0,0.001-0.001,0.002-0.001c0-0.002,0-0.002,0-0.002    c0-0.001,0.002-0.001,0.002-0.002L36.608,56.416z M64.586,57.754l1.076-1.382c0.433,0.337,0.907,0.629,1.42,0.865    c0.002,0.001,0.004,0.003,0.008,0.005c0.004,0.001,0.008,0.003,0.011,0.005c0.004,0.001,0.007,0.002,0.01,0.004    c0.002,0.001,0.005,0.001,0.008,0.004l0,0c0.002,0.001,0.006,0.002,0.008,0.004h0.001c0.002,0,0.005,0.003,0.007,0.004h0.001    c0.007,0.002,0.014,0.005,0.02,0.009c0.003,0.001,0.007,0.002,0.009,0.003c0.003,0.002,0.006,0.003,0.008,0.004l0,0    c0.001,0.001,0.002,0.001,0.004,0.002c0.001,0,0.001,0,0.001,0c0.001,0,0.003,0.001,0.003,0.003h0.001    c0.001,0,0.003,0.001,0.004,0.001l0,0c0.003,0.001,0.006,0.002,0.008,0.003l0,0c0.003,0.002,0.007,0.004,0.008,0.005H67.2    c0.001,0,0.002,0.001,0.004,0.001c0.001,0.001,0.003,0.001,0.004,0.002l0,0c0.001,0,0.004,0.001,0.005,0.003l0,0    c0.001,0,0.002,0.001,0.003,0.001s0.001,0,0.001,0c0.002,0,0.002,0.001,0.004,0.002l0,0c0.001,0,0.002,0.001,0.005,0.001    c0,0.001,0.002,0.001,0.003,0.001c0.001,0.001,0.001,0.001,0.001,0.001c0.002,0.002,0.005,0.003,0.008,0.004l0,0    c0.001,0.001,0.003,0.001,0.004,0.002l0,0c0.001,0,0.002,0.001,0.003,0.001s0.001,0,0.001,0c0.002,0.002,0.003,0.002,0.005,0.003    l0,0c0.001,0,0.002,0.001,0.003,0.001v0.001c0.003,0,0.004,0.001,0.004,0.001c0.001,0,0.001,0,0.001,0    c0.001,0.001,0.004,0.001,0.004,0.003c0.001,0,0.003,0.001,0.004,0.001h0.001c0.003,0.001,0.005,0.002,0.007,0.003l0.001,0.001    c0.002,0,0.003,0,0.004,0.001l0,0c0.001,0,0.002,0.002,0.003,0.002c0,0.001,0.001,0.001,0.001,0.001    c0.002,0,0.003,0.001,0.005,0.001l0,0c0.001,0.001,0.002,0.001,0.004,0.002l0,0c0.002,0,0.003,0,0.004,0.001l0,0    c0.001,0.002,0.003,0.002,0.005,0.003l0,0c0.001,0,0.002,0.001,0.003,0.001h0.001c0.002,0.001,0.003,0.001,0.004,0.002l0,0    c0.001,0,0.002,0.001,0.003,0.001c0.002,0,0.002,0,0.002,0c0.001,0.001,0.002,0.003,0.003,0.003s0.001,0,0.001,0    c0.001,0.001,0.002,0.001,0.004,0.002h0.001c0.001,0,0.001,0.001,0.003,0.001l0,0c0.001,0.001,0.003,0.001,0.004,0.001h0.001    c0.001,0.001,0.001,0.003,0.003,0.003c0,0,0,0,0.002,0c0.001,0.001,0.002,0.001,0.003,0.002l0,0c0.001,0,0.002,0.001,0.003,0.001    c0,0,0.002,0,0.002,0.001c0.001,0,0.002,0.001,0.003,0.001l0,0c0.001,0,0.002,0.001,0.004,0.001c0.001,0,0.001,0,0.001,0.002    c0.001,0,0.002,0,0.004,0.001l0,0c0.001,0.001,0.003,0.001,0.004,0.001c0,0,0,0,0.001,0c0.001,0.001,0.002,0.002,0.003,0.002    c0,0,0,0,0.002,0c0,0.001,0.001,0.001,0.002,0.001c0,0.002,0,0.002,0.001,0.002s0.002,0,0.004,0.001c0,0,0,0,0.002,0    c0,0.001,0.001,0.001,0.002,0.001c0,0,0,0.001,0.001,0.001c0,0,0.001,0,0.003,0.001c0.001,0,0.001,0,0.002,0    c0,0.001,0.001,0.001,0.002,0.001l0.001,0.002c0.002,0,0.003,0.001,0.004,0.001l0,0c0.001,0.001,0.003,0.001,0.004,0.001    c0,0.001,0.002,0.001,0.002,0.001l0.002,0.001c0.001,0,0.001,0,0.001,0c0.001,0.001,0.002,0.001,0.004,0.002H67.4    c0.001,0,0.001,0.002,0.002,0.002s0.001,0,0.001,0.001c0.002,0,0.004,0,0.005,0.001c0,0,0,0,0.001,0c0,0,0.001,0.001,0.002,0.001    h0.001c0.002,0.001,0.003,0.001,0.004,0.001c0,0.001,0.001,0.001,0.001,0.001c0.001,0,0.002,0.002,0.002,0.002    c0.002,0,0.002,0,0.002,0c0.001,0.001,0.003,0.001,0.003,0.002c0.001,0,0.001,0,0.001,0c0.001,0,0.002,0.001,0.004,0.001    c0.001,0,0.001,0,0.001,0.001c0.001,0,0.002,0,0.003,0c0,0.001,0,0.001,0,0.001c0.001,0,0.004,0,0.005,0.001c0,0,0,0,0.001,0.002    h0.001c0.001,0,0.002,0.001,0.002,0.001c0.002,0,0.003,0.001,0.004,0.001l0.001,0.001c0.001,0,0.002,0,0.002,0    c0.002,0.001,0.002,0.001,0.002,0.001c0.001,0,0.002,0.001,0.003,0.001s0.001,0,0.002,0.002c0,0,0.002,0,0.003,0    c0,0,0,0.001,0.002,0.001l0.001,0.001c0.001,0,0.002,0,0.002,0c0.002,0.001,0.003,0.001,0.003,0.001    c0.001,0,0.001,0.001,0.002,0.001c0,0,0.001,0.001,0.002,0.001h0.002c0.001,0.002,0.002,0.002,0.003,0.002l0.001,0.001    c0.001,0,0.002,0,0.004,0c0,0,0,0.001,0.001,0.001s0.002,0.001,0.002,0.001c0.001,0,0.001,0,0.002,0    c0,0.001,0.002,0.001,0.003,0.002h0.001c0.001,0,0.002,0.001,0.002,0.001c0.001,0,0.001,0.002,0.003,0.002    c0.001,0,0.001,0,0.002,0.001c0.001,0,0.002,0,0.002,0.001c0.001,0,0.002,0,0.002,0c0.002,0,0.002,0,0.003,0.001h0.001    c0.001,0,0.002,0.001,0.003,0.001l0.002,0.001c0.001,0,0.001,0,0.002,0.002c0,0,0.001,0,0.002,0s0.001,0.001,0.002,0.001    c0.002,0,0.002,0.001,0.003,0.001c0,0,0.001,0,0.002,0c0,0.001,0.001,0.001,0.002,0.001c0,0,0.002,0.001,0.003,0.001h0.001    c0.001,0.001,0.002,0.001,0.003,0.002c0,0,0.001,0,0.003,0c0,0,0.001,0,0.001,0.002c0.001,0,0.001,0,0.002,0    c0.001,0.001,0.001,0.001,0.002,0.002c0.002,0,0.002,0,0.003,0c0,0.001,0.001,0.001,0.001,0.001c0.001,0,0.001,0,0.002,0    c0.001,0.001,0.003,0.001,0.004,0.001c0,0.001,0,0.001,0.001,0.001s0.002,0,0.002,0.002h0.001c0.001,0,0.003,0.001,0.005,0.001    c0,0,0,0,0.001,0.001s0.005,0.002,0.007,0.002c0,0,0,0,0,0.001c0.003,0,0.006,0.001,0.008,0.003c0.001,0,0.001,0,0.001,0    c0.001,0.001,0.004,0.001,0.005,0.002l0,0c0.001,0,0.002,0,0.003,0v0.001c0.002,0,0.004,0.001,0.005,0.002h0.001    c0.002,0.002,0.005,0.002,0.007,0.004c0.001,0,0.001,0,0.001,0c0.004,0,0.005,0.001,0.008,0.002l0,0    c0.004,0.001,0.006,0.003,0.008,0.004h0.002c0.004,0.001,0.009,0.003,0.013,0.004c0.007,0.004,0.015,0.007,0.023,0.01    l-0.603,1.644C66.156,58.791,65.329,58.333,64.586,57.754z M64.249,46.183l-1.409-1.039c0.558-0.757,1.227-1.422,1.992-1.977    l1.027,1.418C65.248,45.028,64.704,45.565,64.249,46.183z M35.669,43.723l-1.161,1.311c-0.565-0.5-1.208-0.917-1.908-1.226    l0.709-1.601C34.169,42.586,34.963,43.098,35.669,43.723z M31.923,59.381c-0.749,0.194-1.523,0.294-2.302,0.294    c-0.163,0-0.328-0.005-0.489-0.014l0.093-1.748c0.11,0.005,0.223,0.009,0.333,0.01c0,0,0,0,0.001,0s0.001,0,0.002,0    c0,0,0,0,0.001,0c0,0,0.002,0,0.003,0c0,0,0,0,0.001,0s0.001,0,0.002,0l0,0c0.001,0,0.003,0,0.003,0c0.001,0,0.001,0,0.001,0    s0.001,0,0.002,0c0,0,0,0,0.001,0h0.001c0.001,0,0.001,0,0.001,0c0.002,0,0.003,0,0.003,0c0.001,0,0.001,0,0.001,0    c0.001,0,0.002,0,0.002,0h0.001h0.003h0.001h0.001c0.001,0,0.001,0,0.002,0c0,0,0,0,0.002,0h0.001c0,0,0.001,0,0.002,0    c0,0,0,0,0.001,0h0.001c0.001,0,0.001,0,0.001,0c0.002,0,0.002,0,0.003,0s0.001,0,0.001,0c0.001,0,0.001,0,0.002,0    s0.001,0,0.001,0c0.002,0,0.002,0,0.003,0c0,0,0,0,0.001,0h0.001h0.001c0.001,0,0.001,0,0.002,0c0,0,0,0,0.002,0h0.002    c0,0,0,0,0.001,0s0.002,0,0.004,0c0.001,0,0.001,0,0.003,0c0,0,0,0,0.001,0c0,0,0.001,0,0.003,0c0,0,0,0,0.001,0    c0,0,0.001,0,0.002,0l0,0c0.001,0,0.003,0,0.005,0c0,0,0,0,0.001,0s0.001,0,0.002,0c0,0,0,0,0.001,0c0,0,0.001,0,0.003,0h0.001    c0.001,0,0.002,0,0.002,0h0.001c0.001,0,0.002,0,0.004,0l0,0c0.002,0,0.003,0,0.003,0c0.001,0,0.001,0,0.001,0    c0.001,0,0.001,0,0.003,0h0.001c0.001,0,0.001,0,0.002,0s0.001,0,0.001,0c0.001,0,0.002,0,0.004,0h0.001c0.001,0,0.001,0,0.002,0    s0.001,0,0.002,0c0,0,0.002,0,0.003,0c0,0,0,0,0.001,0c0,0,0.001,0,0.002,0c0,0,0,0,0.001,0c0,0,0.002,0,0.003,0s0.001,0,0.002,0    c0,0,0.001,0,0.002,0c0,0,0,0,0.001,0h0.002c0.002,0,0.002,0,0.002,0c0.002,0,0.005,0,0.007,0c0,0,0,0,0.001,0s0.001,0,0.002,0    c0,0,0,0,0.001,0c0.002,0,0.003,0,0.003,0h0.001c0.001,0,0.002,0,0.005,0l0,0c0.001,0,0.002,0,0.002,0c0.001,0,0.001,0,0.001,0    c0.001,0,0.002,0,0.002,0h0.002c0.001,0,0.001,0,0.002,0s0.001,0,0.001,0c0.001,0,0.002,0,0.003,0h0.002c0.001,0,0.001,0,0.002,0    s0.001,0,0.002,0s0.001,0,0.003,0c0,0,0,0,0.001,0c0,0,0.001,0,0.002,0l0,0c0.001,0,0.002,0,0.003,0h0.002    c0.001,0,0.002-0.001,0.003-0.001h0.001c0,0,0.001,0,0.003,0c0,0,0,0,0.001,0s0.001,0,0.002,0s0.001,0,0.001,0    c0.001,0,0.003,0,0.004,0l0,0c0.001,0,0.002,0,0.003,0c0,0,0,0,0.001,0h0.003c0.001,0,0.001,0,0.001,0c0.002,0,0.004,0,0.007,0    c0.001,0,0.001,0,0.001,0c0.001,0,0.001,0,0.002,0h0.001c0.001,0,0.001,0,0.003,0h0.001c0.001,0,0.002,0,0.003,0s0.001,0,0.001,0    c0.002,0,0.002,0,0.003,0h0.001c0.001,0,0.002,0,0.002,0c0.001,0,0.001,0,0.002,0c0,0,0.002,0,0.003,0l0,0    c0.001,0,0.002,0,0.003,0c0,0,0,0,0.001,0c0.002,0,0.003,0,0.004,0l0,0c0.001,0,0.002,0,0.003-0.001l0,0c0.002,0,0.004,0,0.004,0    c0.001,0,0.001,0,0.001,0s0.002,0,0.003,0l0,0c0.003,0,0.003,0,0.004,0s0.001,0,0.001,0c0.001,0,0.001,0,0.002,0h0.002    c0.002,0,0.004,0,0.006,0c0,0,0,0,0.002,0c0,0,0.001,0,0.002,0c0,0,0,0,0.001,0s0.002,0,0.004,0l0,0c0.002,0,0.004,0,0.007,0    h0.001c0,0,0.001,0,0.002,0s0.001,0,0.001,0c0.001,0,0.002-0.002,0.002-0.002h0.002c0.001,0,0.003,0,0.003,0    c0.001,0,0.001,0,0.001,0c0.001,0,0.001,0,0.003,0c0.001,0,0.001,0,0.001,0c0.001,0,0.002,0,0.002,0c0.001,0,0.001,0,0.001,0    c0.001,0,0.002,0,0.002,0c0.002,0,0.002,0,0.003,0c0,0,0.002,0,0.003,0l0,0c0.001,0,0.003,0,0.004,0c0,0,0,0,0.001,0    s0.001,0,0.002,0c0,0,0,0,0.001,0c0,0,0.002,0,0.003,0l0,0c0.002,0,0.002,0,0.003,0s0.001,0,0.001,0    c0.001,0,0.003-0.001,0.004-0.001c0,0,0,0,0.001,0c0,0,0.001,0,0.002,0s0.001,0,0.001,0c0.002,0,0.003,0,0.004,0l0,0    c0.001,0,0.002,0,0.003,0l0,0c0.001,0,0.003,0,0.004,0l0,0c0.001,0,0.003,0,0.003,0c0.001,0,0.001,0,0.001,0    c0.003,0,0.005,0,0.007,0c0,0,0,0,0.001,0c0,0,0.002,0,0.003,0h0.001c0-0.001,0.001-0.001,0.003-0.001s0.003,0,0.004,0    s0.002,0,0.003,0h0.002c0.001,0,0.002,0,0.003,0l0,0c0.001,0,0.002,0,0.003,0c0.002,0,0.004,0,0.004,0h0.001    c0.001,0,0.002,0,0.004,0l0,0c0.001,0,0.002,0,0.002,0c0.001,0,0.001,0,0.001-0.001c0.002,0,0.005,0,0.007,0c0,0,0,0,0.001,0    s0.002,0,0.004,0l0,0c0.001,0,0.002,0,0.003,0l0,0c0.004,0,0.005-0.001,0.008-0.001l0,0c0.001,0,0.002,0,0.002,0    c0.002,0,0.002,0,0.002,0c0.002,0,0.003,0,0.003,0c0.001,0,0.001,0,0.001,0c0.003,0,0.005,0,0.007,0l0,0c0.001,0,0.002,0,0.004,0    l0,0c0.001,0,0.002,0,0.003,0c0,0,0,0,0-0.001c0.004,0,0.006,0,0.008,0c0,0,0,0,0.001,0c0,0,0.002,0,0.003,0l0,0    c0.004,0,0.008,0,0.011,0h0.001c0.002-0.001,0.003-0.001,0.004-0.001c0.003,0,0.007,0,0.01,0c0.001,0,0.001,0,0.001,0    c0.002,0,0.002,0,0.004-0.002l0,0c0.002,0,0.004,0,0.007,0c0.001,0,0.002,0,0.003,0c0,0,0,0,0.001,0c0.002,0,0.003,0,0.004,0    c0.002,0,0.005,0,0.008-0.001c0.001,0,0.001,0,0.003,0l0,0c0.005,0,0.007,0,0.012,0c0.001,0,0.002,0,0.003,0    c0-0.001,0-0.001,0-0.001c0.004,0,0.009,0,0.012,0l0,0c0.001,0,0.002,0,0.004,0c0.004,0,0.006-0.001,0.011-0.001c0,0,0,0,0.001,0    c0,0,0.001,0,0.003,0l0,0c0.002,0,0.004,0,0.008,0l0,0c0.001-0.001,0.002-0.001,0.003-0.001c0,0,0,0,0.001,0s0.003,0,0.004,0    c0.002,0,0.004,0,0.007-0.001c0.001,0,0.002,0,0.003,0l0,0c0.005,0,0.008,0,0.012,0c0.004-0.002,0.01-0.002,0.015-0.002    c0.005-0.001,0.01-0.001,0.016-0.001c0.018-0.001,0.036-0.002,0.056-0.004c0.196-0.017,0.392-0.04,0.583-0.07    c0.002-0.001,0.007-0.002,0.011-0.002l0,0c0.001,0,0.003-0.001,0.004-0.001c0.004,0,0.006-0.002,0.011-0.002    c0.004-0.001,0.009-0.001,0.013-0.002c0.005-0.001,0.011-0.001,0.016-0.002c0,0,0,0,0.001,0c0.003-0.001,0.005-0.001,0.01-0.003    l0,0c0.001,0,0.002,0,0.004,0c0-0.001,0-0.001,0-0.001c0.003,0,0.008-0.001,0.01-0.001h0.001c0,0,0.001,0,0.002-0.001    c0,0,0,0,0.002,0s0.004,0,0.006-0.001c0.002,0,0.003,0,0.004,0h0.001c0-0.001,0.001-0.001,0.002-0.001c0,0,0,0,0.002,0    c0.001,0,0.003-0.002,0.007-0.002l0,0c0.001,0,0.002,0,0.003,0c0-0.001,0-0.001,0-0.001c0.001,0,0.002,0,0.002,0    c0.001,0,0.001,0,0.003,0c0.001-0.001,0.003-0.001,0.007-0.001l0,0c0.001-0.001,0.002-0.001,0.003-0.001l0,0    c0.001,0,0.002,0,0.002,0c0.001,0,0.001,0,0.001-0.001c0.003,0,0.005,0,0.007-0.001l0,0c0.002,0,0.003,0,0.004,0s0.001,0,0.001,0    c0.001,0,0.002,0,0.002-0.001c0,0,0,0,0.001,0c0.002,0,0.003,0,0.004,0l0,0l0.002-0.002c0.001,0,0.001,0,0.003,0h0.001    c0.001,0,0.001,0,0.001,0c0.001,0,0.002-0.001,0.002-0.001s0.001,0,0.003,0h0.002c0.001,0,0.001,0,0.001-0.001    c0.001,0,0.002,0,0.002,0h0.001c0.002,0,0.002-0.001,0.003-0.001h0.001c0,0,0.001,0,0.002,0s0.001,0,0.001,0    c0.002-0.001,0.003-0.001,0.004-0.001h0.001c0.001,0,0.001,0,0.002,0c0,0,0.002,0,0.002-0.001c0.001,0,0.001,0,0.002,0h0.001    h0.001c0.001,0,0.002-0.002,0.004-0.002h0.001c0.001,0,0.001,0,0.002,0c0,0,0.001,0,0.001-0.001c0,0,0.001,0,0.003,0h0.001    c0.001,0,0.001,0,0.002,0c0,0,0,0,0.001-0.001c0.001,0,0.002,0,0.004,0c0,0,0,0,0.001-0.001h0.001c0.001,0,0.001,0,0.001,0    c0.001,0,0.001,0,0.002,0l0.002-0.001c0.002,0,0.004,0,0.008-0.001c0,0,0,0,0.001,0c0,0,0.001,0,0.001-0.001c0,0,0,0,0.001,0    s0.001,0,0.002,0l0,0c0.003-0.002,0.006-0.002,0.009-0.002l0.001-0.001c0,0,0.001,0,0.002,0c0,0,0,0,0.001,0c0,0,0.001,0,0.002,0    l0,0c0.003-0.001,0.005-0.001,0.009-0.002c0.001,0,0.002,0,0.002,0c0.001,0,0.001,0,0.001,0c0.003-0.001,0.007-0.001,0.01-0.002    h0.002c0-0.002,0.001-0.002,0.002-0.002l0,0c0.141-0.026,0.28-0.06,0.418-0.095L31.923,59.381z M27.006,57.446l-0.62,1.637    c-0.881-0.333-1.701-0.8-2.439-1.387l1.089-1.372C25.626,56.794,26.289,57.175,27.006,57.446z M24.373,45.375    c-0.002,0.002-0.003,0.003-0.004,0.004l0,0c-0.002,0.001-0.005,0.003-0.006,0.006h-0.001c-0.001,0.002-0.003,0.003-0.006,0.005    l0,0c-0.001,0.001-0.002,0.003-0.003,0.004l0,0c-0.002,0.002-0.005,0.003-0.006,0.006c0,0,0,0-0.001,0    c-0.001,0.001-0.001,0.002-0.002,0.003c0,0-0.001,0-0.001,0.001c0,0-0.002,0-0.002,0.001h-0.001c0,0.002-0.002,0.002-0.003,0.003    v0.001c-0.003,0.002-0.004,0.003-0.006,0.005c0,0,0,0-0.001,0.001c0,0-0.001,0.001-0.003,0.002c0,0,0,0-0.001,0.001l-0.001,0.001    l0,0c-0.001,0.001-0.002,0.002-0.003,0.003c0,0.001,0,0.001-0.001,0.001c0,0.001-0.003,0.002-0.003,0.003    c-0.001,0-0.001,0-0.001,0c-0.001,0.001-0.001,0.001-0.001,0.002c-0.001,0-0.001,0-0.001,0.001c-0.001,0-0.003,0.001-0.004,0.002    c0,0,0,0.001-0.001,0.001c0,0,0,0.001-0.001,0.001c0,0.001,0,0.001-0.001,0.001c0,0.001-0.001,0.002-0.002,0.002    c0,0.001,0,0.001,0,0.001c-0.002,0.001-0.003,0.002-0.004,0.003l0,0c-0.001,0.001-0.001,0.001-0.002,0.002    c0,0-0.001,0-0.001,0.001c0,0-0.002,0.001-0.002,0.002c-0.001,0-0.001,0.001-0.002,0.001l-0.001,0.001    c0,0.001-0.001,0.001-0.002,0.002l-0.002,0.001c0,0.001-0.001,0.001-0.001,0.002c-0.001,0-0.001,0-0.002,0.001    c0,0.001-0.001,0.002-0.001,0.002l-0.001,0.001c0,0-0.001,0.001-0.003,0.001c0,0.001,0,0.001-0.001,0.002l-0.001,0.001    c-0.001,0-0.001,0.001-0.002,0.002l-0.001,0.001c-0.002,0.001-0.002,0.001-0.003,0.002c0,0,0,0.001-0.001,0.001l-0.001,0.001    c-0.001,0.001-0.001,0.001-0.002,0.002c0,0.001-0.001,0.001-0.001,0.001c0,0.001-0.002,0.001-0.002,0.002    c-0.001,0-0.001,0.001-0.001,0.001c-0.001,0-0.001,0.001-0.002,0.001c0,0.001,0,0.001-0.001,0.001    c0,0.001-0.001,0.002-0.003,0.003c0,0,0,0-0.001,0.001c-0.001,0-0.001,0.001-0.002,0.001v0.001    c-0.001,0.001-0.002,0.002-0.002,0.002c-0.001,0.001-0.001,0.001-0.001,0.001c-0.002,0.001-0.003,0.002-0.003,0.003h-0.001    c-0.001,0.001-0.001,0.001-0.002,0.002c0,0,0,0,0,0.001c-0.001,0-0.003,0.001-0.003,0.002c-0.001,0.001-0.001,0.001-0.001,0.001    c-0.001,0.001-0.002,0.001-0.002,0.002l0,0c-0.002,0.001-0.002,0.002-0.004,0.003c0,0,0,0-0.001,0.001    c0,0-0.001,0.001-0.002,0.002c0,0,0,0,0,0.001c-0.001,0-0.002,0.001-0.002,0.002c-0.001,0-0.001,0-0.001,0    c-0.002,0.001-0.003,0.002-0.003,0.002c0,0.001,0,0.001-0.001,0.001c0,0.001-0.001,0.002-0.001,0.002    c-0.001,0.001-0.001,0.001-0.001,0.001c-0.001,0-0.003,0.001-0.004,0.002c0,0,0,0,0,0.001c-0.001,0.001-0.002,0.001-0.002,0.002    c0,0,0,0-0.001,0.001c0,0-0.001,0.001-0.002,0.002v0.001c-0.002,0.001-0.002,0.001-0.004,0.002c0,0,0,0,0,0.001    c-0.002,0.002-0.003,0.003-0.006,0.006l0,0c-0.002,0.001-0.002,0.002-0.003,0.003l0,0c-0.001,0.001-0.003,0.002-0.003,0.003    c-0.001,0-0.001,0-0.001,0c0,0.001-0.001,0.001-0.002,0.003l0,0c-0.002,0.002-0.005,0.005-0.006,0.006v0.001    c-0.001,0-0.002,0.001-0.003,0.002c-0.003,0.002-0.005,0.004-0.007,0.007l0,0c-0.001,0.002-0.004,0.004-0.005,0.007h-0.001    c-0.003,0.003-0.006,0.007-0.009,0.01c-0.157,0.172-0.305,0.351-0.445,0.538l-1.399-1.053c0.566-0.753,1.242-1.41,2.01-1.957    l1.015,1.427C25,44.791,24.674,45.07,24.373,45.375z M22.538,52.604c0.033,0.115,0.07,0.23,0.108,0.344l0,0    c0.001,0.002,0.001,0.005,0.002,0.008v0.001c0.002,0.002,0.003,0.004,0.004,0.008l0,0c0,0.001,0,0.002,0.001,0.003v0.001    c0,0.002,0.001,0.003,0.002,0.004l0,0c0,0.002,0.002,0.003,0.002,0.005l0,0c0,0.001,0.001,0.003,0.001,0.004    c0.001,0.001,0.001,0.003,0.001,0.004c0,0,0,0,0,0.001c0.001,0.001,0.001,0.002,0.002,0.003c0,0,0,0,0,0.001    c0,0.002,0,0.003,0.001,0.004l0,0c0,0.001,0.001,0.003,0.001,0.005l0,0c0.002,0.002,0.003,0.005,0.004,0.008c0,0,0,0,0,0.001    s0.001,0.002,0.001,0.003c0,0,0,0,0.001,0c0,0.001,0,0.003,0,0.004c0,0,0,0.001,0.001,0.001c0,0.001,0,0.002,0.002,0.003v0.001    c0,0.002,0.001,0.003,0.002,0.004v0.001c0,0.001,0,0.002,0.001,0.002c0,0.002,0,0.002,0,0.002c0,0.001,0.001,0.002,0.001,0.004    l0,0c0.001,0.001,0.001,0.003,0.001,0.004c0,0,0,0.001,0.001,0.001c0,0.001,0,0.002,0.002,0.003v0.001    c0,0.002,0.001,0.003,0.001,0.004l0,0c0,0.001,0.001,0.002,0.001,0.003v0.002c0.001,0.001,0.001,0.002,0.001,0.003l0.001,0.001    c0,0.001,0.001,0.002,0.001,0.002c0,0.002,0,0.002,0,0.002c0,0.002,0.002,0.003,0.002,0.004c0,0,0,0,0.001,0.001    c0,0,0,0.002,0,0.003c0,0,0.001,0,0.001,0.001s0,0.002,0.001,0.003v0.002c0,0.001,0.001,0.001,0.002,0.002    c0,0.001,0,0.001,0,0.002l0.002,0.002c0,0.002,0,0.002,0,0.002c0.001,0.001,0.001,0.002,0.001,0.003l0.001,0.001    c0,0.001,0,0.003,0,0.004c0,0,0,0,0,0.001c0.001,0,0.001,0.001,0.002,0.002c0,0.001,0,0.001,0,0.001    c0,0.001,0.001,0.003,0.001,0.004c0,0,0,0.001,0.001,0.002c0,0,0,0.001,0,0.002l0.002,0.002c0,0.001,0,0.002,0.001,0.003v0.001    c0,0.001,0.001,0.001,0.001,0.002v0.002c0.001,0.001,0.001,0.002,0.001,0.003c0.001,0,0.001,0.001,0.001,0.001    c0,0.001,0,0.001,0,0.003c0.001,0.001,0.001,0.002,0.001,0.003c0.002,0,0.002,0.001,0.002,0.001c0,0.001,0,0.001,0,0.003    c0.001,0.001,0.001,0.001,0.002,0.002c0,0,0,0.001,0.001,0.002v0.001c0,0.001,0,0.001,0.001,0.003c0,0.001,0,0.002,0.001,0.002    c0,0.001,0,0.001,0,0.002s0.001,0.001,0.001,0.003c0,0.001,0,0.002,0.002,0.002c0,0.001,0,0.002,0,0.002s0.001,0.001,0.001,0.002    c0,0,0,0,0,0.002c0.001,0.001,0.001,0.002,0.001,0.003c0,0,0,0,0.001,0.001c0,0,0,0.001,0,0.003c0.001,0,0.001,0,0.001,0.001    s0,0.002,0.001,0.003v0.001c0.002,0.002,0.002,0.003,0.003,0.004c0,0.001,0,0.001,0,0.001c0,0.001,0.001,0.001,0.001,0.002v0.001    c0,0.002,0.001,0.003,0.001,0.004s0.001,0.001,0.001,0.001c0,0.001,0.001,0.001,0.001,0.002v0.002    c0,0.002,0.002,0.002,0.002,0.004c0,0,0.001,0,0.001,0.001c0.001,0.003,0.001,0.005,0.002,0.007c0,0,0,0,0,0.001    c0.001,0.002,0.001,0.003,0.002,0.004v0.001c0,0.001,0,0.001,0.001,0.002c0,0,0,0,0,0.002c0,0.001,0.002,0.002,0.002,0.003v0.001    c0.001,0.002,0.002,0.005,0.003,0.007c0,0.001,0,0.001,0,0.001c0,0.001,0.001,0.004,0.002,0.005    c0.002,0.001,0.002,0.002,0.002,0.002c0,0.001,0,0.001,0,0.001c0.001,0.003,0.001,0.004,0.002,0.005v0.001    c0.001,0.002,0.001,0.005,0.003,0.007v0.001c0.001,0.002,0.001,0.005,0.003,0.007c0,0,0,0,0,0.001    c0.001,0.001,0.001,0.004,0.002,0.005l0,0c0.001,0.002,0.002,0.006,0.002,0.008h0.001c0,0.002,0.002,0.005,0.003,0.008l0,0    c0.001,0.002,0.002,0.004,0.002,0.005c0.001,0.003,0.002,0.005,0.003,0.008l0,0c0.002,0.003,0.003,0.006,0.004,0.008v0.001    c0.002,0.007,0.006,0.014,0.008,0.021l0,0c0.146,0.361,0.318,0.709,0.517,1.039c0.004,0.006,0.007,0.013,0.011,0.019v0.001    c0.005,0.006,0.008,0.013,0.013,0.019c0,0.001,0,0.001,0,0.001c0.001,0.002,0.002,0.004,0.003,0.006    c0,0.001,0.001,0.001,0.001,0.001c0.001,0.001,0.001,0.002,0.003,0.004l0,0c0,0.002,0.001,0.002,0.001,0.003l0,0    c0.001,0.002,0.002,0.003,0.003,0.004l0,0c0.001,0.003,0.004,0.005,0.005,0.007c0,0.001,0,0.001,0,0.001    c0.002,0.003,0.003,0.005,0.004,0.007l0,0c0.002,0.003,0.002,0.004,0.003,0.005l0,0c0.001,0.001,0.001,0.001,0.001,0.002    c0.001,0.001,0.002,0.004,0.003,0.005c0,0,0.002,0,0.002,0.001c0.001,0.001,0.002,0.005,0.003,0.006c0,0.001,0,0.001,0,0.001    c0.001,0.001,0.002,0.002,0.002,0.003l0.001,0.002c0,0.001,0.002,0.001,0.002,0.002c0,0,0,0,0.001,0.001    c0,0.001,0.001,0.002,0.001,0.004c0,0,0.001,0,0.001,0.001c0,0,0,0.001,0.001,0.001c0,0.001,0.001,0.001,0.001,0.002    s0.002,0.001,0.002,0.002c0,0,0,0.002,0.001,0.002c0,0.001,0,0.002,0.002,0.002c0,0.001,0,0.001,0.001,0.002    c0,0,0,0.001,0.001,0.001c0,0.002,0,0.002,0,0.003c0.001,0.001,0.001,0.001,0.001,0.002c0.002,0,0.002,0.001,0.002,0.001    c0,0.001,0.001,0.001,0.001,0.002c0.001,0,0.001,0.002,0.002,0.003c0,0.001,0,0.001,0,0.001c0,0.001,0.001,0.001,0.002,0.002    c0,0.001,0,0.001,0,0.003c0.002,0,0.002,0.001,0.003,0.002c0,0,0,0,0,0.001c0.001,0.001,0.001,0.001,0.002,0.002v0.002    c0.001,0.001,0.001,0.001,0.002,0.002c0.001,0,0.001,0.001,0.001,0.001c0,0.001,0.002,0.001,0.002,0.002s0.001,0.001,0.001,0.003    l0.001,0.001c0,0.001,0,0.001,0.001,0.002c0,0.001,0.001,0.001,0.001,0.002c0,0,0.001,0.002,0.001,0.003l0.002,0.001    c0,0.001,0,0.001,0.001,0.001c0,0.001,0.001,0.002,0.001,0.002c0.001,0.001,0.001,0.001,0.001,0.003    c0.001,0.001,0.001,0.002,0.002,0.002c0,0.001,0,0.001,0,0.001c0,0.001,0.002,0.001,0.002,0.002c0.001,0,0.001,0.002,0.001,0.002    c0,0.001,0.002,0.002,0.002,0.003c0,0,0,0.001,0.001,0.001c0,0.001,0.001,0.001,0.001,0.002c0,0,0,0,0,0.002    c0.001,0,0.003,0.001,0.003,0.002v0.001c0.001,0.001,0.002,0.002,0.002,0.004l0,0c0.001,0.001,0.001,0.002,0.002,0.003l0,0    c0.001,0.002,0.003,0.002,0.004,0.004v0.001c0,0.001,0.001,0.002,0.001,0.003c0.001,0,0.001,0,0.001,0    c0,0.001,0.001,0.002,0.001,0.004c0.001,0,0.001,0,0.001,0.001c0.001,0.001,0.003,0.001,0.003,0.002    c0.001,0.001,0.001,0.002,0.002,0.004v0.001c0.001,0.001,0.001,0.002,0.002,0.003l0,0c0.001,0.001,0.001,0.002,0.003,0.004l0,0    c0.001,0.001,0.001,0.002,0.002,0.003c0,0.001,0,0.001,0,0.001c0.001,0.001,0.002,0.003,0.002,0.004l0,0    c0.001,0.001,0.002,0.002,0.002,0.003l0,0c0.003,0.003,0.004,0.005,0.006,0.008c0.001,0.001,0.001,0.003,0.003,0.004l0,0    c0.002,0.002,0.003,0.004,0.004,0.007v0.001c0.001,0.002,0.004,0.004,0.005,0.007c0.016,0.024,0.032,0.048,0.05,0.073    l-1.454,0.977c-0.527-0.783-0.927-1.64-1.188-2.545L22.538,52.604z M20.501,50.308c0.024-0.945,0.195-1.874,0.503-2.761    l1.654,0.577c-0.245,0.701-0.387,1.451-0.406,2.232L20.501,50.308z M21.287,44.596c-0.162,0.227-0.316,0.46-0.461,0.701h-7.936    l-0.298-0.701H21.287z M12.859,46.837h7.214c-0.09,0.23-0.174,0.464-0.246,0.701h-7.267L12.859,46.837z M19.482,49.081    c-0.033,0.231-0.058,0.465-0.074,0.701h-6.58l-0.3-0.701H19.482z M19.408,51.322c0.017,0.236,0.041,0.47,0.074,0.701h-6.687    l-0.298-0.701H19.408z M19.827,53.565c0.073,0.237,0.156,0.471,0.246,0.7h-7.309l-0.298-0.7H19.827z M20.827,55.808    c0.144,0.24,0.298,0.473,0.46,0.701h-8.554l-0.299-0.701H20.827z M12.701,58.049h9.94c0.267,0.249,0.545,0.482,0.835,0.701H12.403    L12.701,58.049z M12.67,60.992l-0.299-0.7h14.074c1,0.325,2.066,0.504,3.176,0.504c1.108,0,2.174-0.179,3.174-0.504H67.02    c0.139,0.046,0.278,0.09,0.419,0.128c2.021,0.563,4.069,0.479,5.924-0.128h13.621l0.299,0.7H12.67z M87.313,58.75h-0.299H76.329    c0.291-0.219,0.572-0.451,0.841-0.701h10.144V58.75z M78.526,56.509c0.161-0.227,0.313-0.461,0.456-0.701h8.064l0.299,0.701    H78.526z M79.736,54.266c0.089-0.229,0.167-0.463,0.24-0.7h7.102l0.298,0.7H79.736z M80.324,52.023    c0.035-0.233,0.063-0.468,0.08-0.701h6.706l0.299,0.701H80.324z M80.405,49.781c-0.017-0.236-0.045-0.468-0.079-0.701h6.815    l0.299,0.701H80.405z M87.471,47.539h-0.298h-7.194c-0.073-0.236-0.152-0.471-0.241-0.701h7.733V47.539z M78.979,45.296    c-0.142-0.239-0.294-0.473-0.457-0.701h8.684l0.299,0.701H78.979z M87.535,43.055h-0.299H77.169    c-0.265-0.249-0.545-0.482-0.837-0.701h11.203V43.055z M73.358,40.812c-0.139-0.045-0.278-0.088-0.419-0.127    c-2.021-0.563-4.069-0.479-5.924,0.127H32.795c-1-0.325-2.065-0.503-3.174-0.503c-1.11,0-2.176,0.178-3.176,0.503H12.954    l-0.298-0.701h74.611l0.3,0.701H73.358z"/>
    </g>
  </g>
</svg>
