<svg xmlns="http://www.w3.org/2000/svg" xmlns:xlink="http://www.w3.org/1999/xlink" version="1.1" x="0px" y="0px" viewBox="0 0 100 100" enable-background="new 0 0 100 100" xml:space="preserve">
  <g>
    <path d="M79.763,48.694H21.657c-1.436,0-2.6,1.166-2.6,2.601c0,1.437,1.164,2.6,2.6,2.6h58.105c1.436,0,2.6-1.163,2.6-2.6   C82.362,49.86,81.198,48.694,79.763,48.694z"/>
    <path d="M79.763,59.961H21.657c-1.436,0-2.6,1.165-2.6,2.6c0,1.438,1.164,2.6,2.6,2.6h58.105c1.436,0,2.6-1.162,2.6-2.6   C82.362,61.126,81.198,59.961,79.763,59.961z"/>
    <path d="M79.763,70.795H21.657c-1.436,0-2.6,1.165-2.6,2.6c0,1.438,1.164,2.601,2.6,2.601h58.105c1.436,0,2.6-1.163,2.6-2.601   C82.362,71.96,81.198,70.795,79.763,70.795z"/>
    <path d="M75.078,22.608H26.342c-4.824,0-8.749,4.032-8.749,8.988v2.996c0,4.956,3.925,8.988,8.749,8.988h48.736   c4.825,0,8.751-4.032,8.751-8.988v-2.996C83.829,26.641,79.903,22.608,75.078,22.608z"/>
  </g>
</svg>
