<svg xmlns="http://www.w3.org/2000/svg" xmlns:xlink="http://www.w3.org/1999/xlink" version="1.1" x="0px" y="0px" viewBox="0 0 100 100" enable-background="new 0 0 100 100" xml:space="preserve">
  <path d="M78.461,47.116c-2.351-3.467-6.19-4.651-9.539-4.955V11.887c0-3.805-3.095-6.883-6.883-6.883h-0.863  c-3.805,0-6.883,3.095-6.883,6.883v18.046c-0.879-0.406-1.877-0.643-2.909-0.643h-0.863c-1.911,0-3.653,0.778-4.905,2.046  c-1.252-1.268-2.977-2.046-4.905-2.046H39.85c-1.032,0-2.03,0.237-2.909,0.643v-9.826c0-3.805-3.095-6.883-6.883-6.883h-0.863  c-3.805,0-6.883,3.095-6.883,6.883v46.256c0,0.034,0,0.068,0,0.101c0.22,15.779,13.107,28.532,28.937,28.532  c15.965,0,28.937-12.989,28.937-28.937V52.41C80.203,52.139,80.169,49.636,78.461,47.116z M58.251,11.887  c0-1.607,1.302-2.909,2.909-2.909h0.863c1.607,0,2.909,1.302,2.909,2.909v30.189h-6.68v-0.135v-5.767L58.251,11.887L58.251,11.887z   M50.505,33.265h0.863c1.607,0,2.909,1.302,2.909,2.909v5.767v0.135H50.86v1.996c0,2.554,1.082,5.344,2.943,7.695  c-0.524,0.778-1.404,1.302-2.418,1.302h-0.863c-1.607,0-2.909-1.302-2.909-2.909v-0.44v-5.327v-2.435v-5.767  C47.613,34.567,48.915,33.265,50.505,33.265z M39.867,33.265h0.863c1.607,0,2.909,1.302,2.909,2.909l0,0v5.767v2.435l0,0v5.767  c0,1.607-1.302,2.909-2.909,2.909h-0.863c-1.607,0-2.909-1.302-2.909-2.909v-0.44V47.59v-3.23v-8.203  C36.958,34.567,38.26,33.265,39.867,33.265z M76.229,66.059c0,13.767-11.196,24.963-24.963,24.963S26.303,79.825,26.303,66.059  V20.107c0-1.607,1.302-2.909,2.909-2.909h0.863c1.607,0,2.909,1.302,2.909,2.909v16.067v8.203v3.23v2.114v0.44  c0,3.805,3.095,6.883,6.883,6.883h0.863c1.911,0,3.653-0.778,4.905-2.046c1.252,1.268,2.977,2.046,4.905,2.046h0.863  c2.131,0,4.042-0.981,5.294-2.503c2.486,1.827,5.48,2.807,8.642,2.807h0.271v1.877c-2.368,0.474-4.786,1.776-6.765,3.653  c-2.926,2.791-4.533,6.545-4.533,10.604c0,1.099,0.896,1.996,1.996,1.996s1.996-0.896,1.996-1.996c0-3.772,1.793-6.291,3.298-7.712  c1.793-1.708,4.093-2.757,6.004-2.757h1.962v-9.623H65.32c-3.772,0-6.291-1.793-7.712-3.298c-1.133-1.201-1.996-2.621-2.435-4.025  h11.754c3.89,0,6.63,1.065,8.135,3.163c1.099,1.522,1.167,3.112,1.167,3.213V66.059z"/>
</svg>